<svg xmlns="http://www.w3.org/2000/svg" width="1288.3563" height="716.491" viewBox="0 0 1288.3563 716.491"><defs><style>.a,.aa,.ab,.ac,.am,.an,.h,.q,.w,.x,.y,.z{fill:none;}.a{stroke:#3b7ded;}.a,.h,.q,.x{stroke-miterlimit:10;}.b{fill:#e8eaed;}.c{fill:#dadce0;}.d{fill:#fff;}.e{fill:#5f6368;}.f{fill:#fabb05;}.g{fill:#3c4043;}.h{stroke:#3c4043;stroke-width:12px;}.i{fill:#f29900;}.j{fill:#f9ab00;}.k{fill:#34a853;}.l{fill:#e9e9e9;}.m{isolation:isolate;}.n{fill:#3b7ded;}.o{fill:#f8f9fa;}.p{fill:#e94235;}.q{stroke:#fff;}.r{fill:#4285f4;}.s{fill:#5d6369;}.t{fill:#575b60;}.u{fill:#bdc1c6;}.v{fill:#d93025;}.am,.an,.w{stroke:#e94235;}.w{stroke-miterlimit:9.9996;}.x{stroke:#c3c7cb;stroke-width:2px;}.y,.z{stroke:#f0b501;}.y{stroke-miterlimit:10.0002;}.z{stroke-miterlimit:9.9995;}.aa{stroke:#dadce0;}.aa,.ac{stroke-linecap:round;stroke-linejoin:round;}.ac{stroke:#5f6368;stroke-width:5px;}.ad{fill:#e43e2b;}.ae{fill:#c93726;}.af{fill:#f2c500;}.ag{fill:#f0b501;}.ah{fill:#f09901;}.ai{fill:#f01b17;}.aj{fill:#f04f19;}.ak{fill:#397ef2;}.al{fill:#3e7deb;}.am{stroke-miterlimit:9.9998;stroke-width:1.5px;}.an{stroke-miterlimit:9.9995;stroke-width:1.4999px;}.ao{fill:#3065bf;}.ap{fill:#f1391c;}.aq{fill:#2ba34c;}.ar{fill:#248940;}.as{fill:#ffc100;}.at{opacity:0.75;}.au{fill:#2ba24c;}</style></defs><title>seasonality-en</title><path class="a" d="M15.8879,480.1265C220.6755,305.8219,528.0646,551.0693,581.84,208.8623c12.5057-45.3451,20.5461-85.9059,45.9507-96.69,23.3731-10.7153,35.5582,5.9,45.6171,29.678C729.55,417.9505,1019.5823,65.344,1257.9708,493.55"/><ellipse class="b" cx="261.925" cy="547.5516" rx="79.1651" ry="7.3295"/><path class="c" d="M316.933,545.7587a88.4638,88.4638,0,0,1-36.8077,0,8.523,8.523,0,0,1-6.2779-7.9384V473.5385a15.3645,15.3645,0,0,1,15.276-15.2761q9.4056,0,18.8114,0a15.3636,15.3636,0,0,1,15.276,15.2761V537.82A8.523,8.523,0,0,1,316.933,545.7587Z"/><path class="d" d="M314.8887,498.02H312.855a1.6515,1.6515,0,0,1-1.6515-1.6515V466.8514A1.6515,1.6515,0,0,1,312.855,465.2h2.0337a1.6515,1.6515,0,0,1,1.6515,1.6515v29.5171A1.6516,1.6516,0,0,1,314.8887,498.02Z"/><rect class="e" x="298.1289" y="447.3224" width="1.0673" height="10.94"/><path class="f" d="M302.6435,448.1443a3.981,3.981,0,1,1-7.962,0c0-2.1986,1.7823-11.762,3.981-11.762S302.6435,445.9457,302.6435,448.1443Z"/><path class="g" d="M228.0847,549.7745h-23.481a3.421,3.421,0,0,1-3.202-3.587l-5.3366-57.3913a3.421,3.421,0,0,1,3.202-3.5869h12.9792c10.4722,0,19.04,9.5984,19.04,21.33v39.6485A3.421,3.421,0,0,1,228.0847,549.7745Z"/><path class="h" d="M182.4569,518.0294a7.2046,7.2046,0,1,1,7.2044-7.2044V529.14a12.1041,12.1041,0,0,0,12.104,12.1042h4.2411"/><path class="g" d="M208.3717,462.262h-9.1781a6.2756,6.2756,0,0,0-4.9972,2.4794l-2.9353,3.864a6.2757,6.2757,0,0,0,0,7.5924l2.9353,3.864a6.2756,6.2756,0,0,0,4.9972,2.4794h9.1781a6.2756,6.2756,0,0,0,4.9972-2.4794l2.9353-3.864a6.2757,6.2757,0,0,0,0-7.5924l-2.9353-3.864A6.2757,6.2757,0,0,0,208.3717,462.262Z"/><polygon class="g" points="196.065 488.411 196.065 478.539 211.541 478.539 211.541 487.878 196.065 488.411"/><path class="g" d="M210.0365,465.1443l5.3282-1.9541a1.2473,1.2473,0,0,1,1.6722,1.2788l-.49,5.6541a1.2474,1.2474,0,0,1-2,.8831l-4.8382-3.7A1.2474,1.2474,0,0,1,210.0365,465.1443Z"/><path class="g" d="M200.3981,465.1443,195.07,463.19a1.2473,1.2473,0,0,0-1.6722,1.2788l.49,5.6541a1.2474,1.2474,0,0,0,2.0005.8831l4.8382-3.7A1.2475,1.2475,0,0,0,200.3981,465.1443Z"/><circle class="f" cx="211.4093" cy="473.7385" r="1.601"/><circle class="f" cx="200.2025" cy="473.7385" r="1.601"/><path class="i" d="M274.2766,549.9354H234.5614a16.3776,16.3776,0,0,1-16.33-16.33V513.497a16.3776,16.3776,0,0,1,16.33-16.33h39.7152a16.3777,16.3777,0,0,1,16.33,16.33v20.1088A16.3777,16.3777,0,0,1,274.2766,549.9354Z"/><path class="j" d="M264.1735,550.0518H244.8424a15.7442,15.7442,0,0,1-15.6981-15.6981V512.9819a15.7443,15.7443,0,0,1,15.6981-15.6981h19.3311a15.7443,15.7443,0,0,1,15.6981,15.6981v21.3718A15.7443,15.7443,0,0,1,264.1735,550.0518Z"/><path class="f" d="M254.45,549.8941h0a58.04,58.04,0,0,1,0-52.7267h0"/><path class="f" d="M254.419,549.8941h0a58.04,58.04,0,0,0,0-52.7267h0"/><rect class="k" x="251.0985" y="487.08" width="6.4138" height="10.2038"/><polygon class="g" points="233.596 519.101 239.405 509.966 245.214 519.101 233.596 519.101"/><polygon class="g" points="250.143 526.623 254.565 519.67 258.987 526.623 250.143 526.623"/><polygon class="g" points="263.624 519.149 269.433 510.014 275.242 519.149 263.624 519.149"/><path class="g" d="M269.2042,535.5056a38.321,38.321,0,0,1-29.684,0,2.6065,2.6065,0,0,1-1.3321-3.5847l.0238-.0468a2.5854,2.5854,0,0,1,3.2964-1.2253,33.0731,33.0731,0,0,0,25.7077,0,2.5855,2.5855,0,0,1,3.2964,1.2253l.0238.0468A2.6063,2.6063,0,0,1,269.2042,535.5056Z"/><rect class="j" x="237.8626" y="517.2539" width="3.2239" height="3.2239"/><rect class="f" x="252.8853" y="524.6711" width="3.2239" height="3.2239"/><rect class="j" x="261.6313" y="531.3764" width="3.2239" height="3.2239"/><rect class="j" x="243.5561" y="535.1663" width="3.2239" height="3.2239"/><rect class="j" x="267.9294" y="517.2539" width="3.2239" height="3.2239"/><path class="l" d="M195.9709,378.2835l-1.4043.6472a1.9062,1.9062,0,0,0-1.097,1.5231l-.15,1.3612a1.9062,1.9062,0,0,0,.8221,1.7839l1.132.7707a1.9063,1.9063,0,0,0,1.8706.1555l1.4043-.6472a1.9062,1.9062,0,0,0,1.097-1.5231l.15-1.3612a1.9062,1.9062,0,0,0-.8221-1.7839l-1.132-.7707A1.9063,1.9063,0,0,0,195.9709,378.2835Z"/><path class="l" d="M195.9383,378.4159l1.5788-1.8557c.1815-.2133.529-.0917.65.2275l1.0561,2.7774Z"/><path class="l" d="M194.7083,378.9827l-2.4364-.0053c-.28-.0006-.4134.3426-.25.6422l1.4254,2.6072Z"/><path class="l" d="M201.8122,384.6642c1.144,2.4825-1.0234,5.9212-1.0234,5.9212s-4.0223-.5862-5.1663-3.0687-.6858-5.1335,1.0234-5.9212S200.6682,382.1817,201.8122,384.6642Z"/><path class="l" d="M215.2579,376.1772a3.3857,3.3857,0,0,0-2.6631,5.0384c.0447.0795.0923.1558.1426.23a3.3853,3.3853,0,0,0-5.2078,3.3568,3.3838,3.3838,0,0,0-5.87,2.8087,4.0277,4.0277,0,0,1-1.9806-1.9192c-1.3223-2.8695.6884-8.4916,5.3713-10.65A10.1276,10.1276,0,0,1,215.2579,376.1772Z"/><path class="l" d="M180.4435,392.2212a3.3856,3.3856,0,0,1,5.56,1.2486c.0314.0856.0584.1714.0822.2578a3.3853,3.3853,0,0,1,5.9352-1.7784,3.3838,3.3838,0,0,1,5.9484-2.6377,4.0282,4.0282,0,0,0-.1723-2.7526c-1.3223-2.8694-6.9028-4.9932-11.5857-2.8351A10.1283,10.1283,0,0,0,180.4435,392.2212Z"/><path class="l" d="M308.4958,351.1549l-1.3627-.7308a1.9064,1.9064,0,0,0-1.8766.0423l-1.1765.7009a1.9064,1.9064,0,0,0-.9283,1.731l.067,1.3678a1.9065,1.9065,0,0,0,1.0031,1.5866l1.3627.7307a1.9064,1.9064,0,0,0,1.8766-.0423l1.1765-.7009a1.9064,1.9064,0,0,0,.9283-1.731l-.0671-1.3678A1.9061,1.9061,0,0,0,308.4958,351.1549Z"/><path class="l" d="M308.3706,351.2087l2.4323.1418c.2795.0163.3919.3669.21.6562l-1.58,2.5164Z"/><path class="l" d="M307.177,350.5686l-1.4638-1.9476c-.1682-.2238-.5225-.1235-.6629.1878l-1.2219,2.7086Z"/><path class="l" d="M306.9234,359.6615c-1.2918,2.4089-5.3422,2.7512-5.3422,2.7512s-1.9559-3.5633-.664-5.9722,3.6836-3.6406,5.3422-2.7512S308.2153,357.2527,306.9234,359.6615Z"/><path class="l" d="M321.7985,365.2782a3.3858,3.3858,0,0,0-5.6257.9107c-.0365.0836-.0687.1676-.0976.2524a3.3854,3.3854,0,0,0-5.817-2.1336,3.3838,3.3838,0,0,0-5.7782-2.992,4.0279,4.0279,0,0,1,.3382-2.7372c1.4932-2.7843,7.1917-4.5673,11.7357-2.1305A10.1282,10.1282,0,0,1,321.7985,365.2782Z"/><path class="l" d="M288.0164,347.1614a3.3856,3.3856,0,0,1,2.354,5.19c-.0494.0766-.1016.15-.1562.2209a3.3853,3.3853,0,0,1,4.9957,3.6651,3.3839,3.3839,0,0,1,5.6894,3.1579,4.0278,4.0278,0,0,0,2.0929-1.7961c1.4932-2.7843-.1745-8.5177-4.7185-10.9545A10.1281,10.1281,0,0,0,288.0164,347.1614Z"/><g class="m"><g class="m"><path class="g" d="M76.561,628.3311h7.8936a7.8788,7.8788,0,0,1,3.708.8906,6.945,6.945,0,0,1,2.7056,2.4824,6.9538,6.9538,0,0,1,0,7.1934,6.9333,6.9333,0,0,1-2.7056,2.4834,7.88,7.88,0,0,1-3.708.8906H80.126V651.12H76.561Zm7.9576,10.5664a3.833,3.833,0,0,0,2.0366-.5245A3.5393,3.5393,0,0,0,87.86,637.02a3.5362,3.5362,0,0,0,0-3.4375,3.44,3.44,0,0,0-1.3052-1.3369,3.9282,3.9282,0,0,0-2.0366-.5088H80.126v7.1612Z"/><path class="g" d="M94.9258,634.8877h3.3418v2.3867h.1592a4.6039,4.6039,0,0,1,1.8779-2.0683,5.2941,5.2941,0,0,1,2.833-.8282,4.9036,4.9036,0,0,1,1.9731.3506v3.5967a7.4525,7.4525,0,0,0-2.5141-.51,3.7275,3.7275,0,0,0-2.1485.6387,4.4534,4.4534,0,0,0-1.48,1.7061,5.1187,5.1187,0,0,0-.541,2.3457V651.12h-3.501Z"/><path class="g" d="M109.9648,650.5156a7.8544,7.8544,0,0,1-2.96-3.0713,9.0654,9.0654,0,0,1-1.0659-4.4091,9.2119,9.2119,0,0,1,1.0342-4.3125,8.133,8.133,0,0,1,2.8808-3.167,7.6484,7.6484,0,0,1,4.2012-1.1778,8.0906,8.0906,0,0,1,4.249,1.0821,7.0932,7.0932,0,0,1,2.7373,2.96,9.3416,9.3416,0,0,1,.939,4.2334,8.1595,8.1595,0,0,1-.0952,1.1143H109.44a4.9422,4.9422,0,0,0,1.6074,3.4853,4.8775,4.8775,0,0,0,3.2944,1.2256,4.7958,4.7958,0,0,0,2.5938-.6846,5.1245,5.1245,0,0,0,1.7666-1.8623l2.96,1.4a8.72,8.72,0,0,1-2.9917,3.1514,8.9515,8.9515,0,0,1-8.7051.0322Zm8.45-9.4218a4.0437,4.0437,0,0,0-.541-1.7022,3.8726,3.8726,0,0,0-1.4482-1.417,4.5926,4.5926,0,0,0-2.3711-.5723,4.2089,4.2089,0,0,0-2.8486,1.002,5.1977,5.1977,0,0,0-1.6075,2.6895Z"/><path class="g" d="M125.1313,639.7568H135.603v2.9922H125.1313Z"/><path class="g" d="M140.2173,628.3311h3.5649v9.4531H154.35v-9.4531h3.5327V651.12H154.35v-9.9629H143.7822V651.12h-3.5649Z"/><path class="g" d="M165.7441,650.499a7.9377,7.9377,0,0,1-3.0239-3.1025,9.4573,9.4573,0,0,1,0-8.7852,7.9469,7.9469,0,0,1,3.0239-3.1035,8.5713,8.5713,0,0,1,4.3921-1.13,8.4725,8.4725,0,0,1,4.3926,1.1465,8.0571,8.0571,0,0,1,3.0234,3.1192,9.3872,9.3872,0,0,1,0,8.7529,7.9419,7.9419,0,0,1-3.0234,3.1025,9.1023,9.1023,0,0,1-8.7847,0Zm6.875-2.7373a4.7946,4.7946,0,0,0,1.83-1.8779,5.81,5.81,0,0,0,.6841-2.88,5.73,5.73,0,0,0-.6841-2.8652,4.8285,4.8285,0,0,0-1.83-1.8614,5.0506,5.0506,0,0,0-4.9653,0,4.8223,4.8223,0,0,0-1.83,1.8614,5.7258,5.7258,0,0,0-.6845,2.8652,5.8062,5.8062,0,0,0,.6845,2.88,4.7885,4.7885,0,0,0,1.83,1.8779,5.0439,5.0439,0,0,0,4.9653,0Z"/><path class="g" d="M181.69,628.3311h3.501V651.12H181.69Z"/><path class="g" d="M189.6318,632.1025a2.3814,2.3814,0,1,1,1.6709.6846A2.2745,2.2745,0,0,1,189.6318,632.1025Zm-.0791,2.7852h3.501V651.12h-3.501Z"/><path class="g" d="M200.2148,650.5156a7.8772,7.8772,0,0,1-2.8164-3.0713,10.0418,10.0418,0,0,1,0-8.8808,7.8779,7.8779,0,0,1,2.8164-3.0713,7.3593,7.3593,0,0,1,3.9786-1.1143,6.232,6.232,0,0,1,3.0878.7637A5.595,5.595,0,0,1,209.35,637.02h.1592l-.1592-2.291v-6.3974h3.501V651.12h-3.3418V649.02H209.35a5.6959,5.6959,0,0,1-2.0684,1.8457,6.2214,6.2214,0,0,1-3.0878.7637A7.3585,7.3585,0,0,1,200.2148,650.5156Zm6.8594-2.7695a4.8968,4.8968,0,0,0,1.7666-1.9092,5.8846,5.8846,0,0,0,.668-2.833,5.7958,5.7958,0,0,0-.668-2.8174,4.926,4.926,0,0,0-1.7666-1.8935,4.4847,4.4847,0,0,0-2.3711-.668,4.5646,4.5646,0,0,0-2.3877.668,4.87,4.87,0,0,0-1.7822,1.8935,5.7958,5.7958,0,0,0-.668,2.8174,5.8846,5.8846,0,0,0,.668,2.833,4.8414,4.8414,0,0,0,1.7822,1.9092,4.5655,4.5655,0,0,0,2.3877.6689A4.4856,4.4856,0,0,0,207.0742,647.7461Z"/><path class="g" d="M218.74,650.9453a5.103,5.103,0,0,1-2.1328-1.9414,5.3751,5.3751,0,0,1-.7636-2.8486,4.7616,4.7616,0,0,1,1.8935-3.98,7.604,7.604,0,0,1,4.79-1.4639,11.2839,11.2839,0,0,1,2.5782.27,9.3793,9.3793,0,0,1,1.8144.5889v-.8272a3.0372,3.0372,0,0,0-1.1142-2.4355,4.2975,4.2975,0,0,0-2.8643-.9385,5.2325,5.2325,0,0,0-2.34.541,4.6019,4.6019,0,0,0-1.7666,1.4961l-2.45-1.8779a7.3028,7.3028,0,0,1,2.8007-2.3232,8.6876,8.6876,0,0,1,3.8194-.8282,7.8148,7.8148,0,0,1,5.4424,1.7344,6.2651,6.2651,0,0,1,1.91,4.8857V651.12H226.92v-1.9414h-.1592a5.4832,5.4832,0,0,1-1.9736,1.75,5.9769,5.9769,0,0,1-2.9277.7A6.8819,6.8819,0,0,1,218.74,650.9453Zm6.0157-2.8174a4.315,4.315,0,0,0,1.5908-1.623,4.4077,4.4077,0,0,0,.5732-2.1963,7.15,7.15,0,0,0-1.7031-.668,7.9244,7.9244,0,0,0-2.02-.2549,4.4378,4.4378,0,0,0-2.8965.7793,2.5217,2.5217,0,0,0-.9228,2.0215,2.2751,2.2751,0,0,0,.8593,1.83,3.3624,3.3624,0,0,0,2.2276.7168A4.4054,4.4054,0,0,0,224.7559,648.1279Z"/><path class="g" d="M238.8232,650.2285l-6.747-15.3408h3.915l4.583,11.0439h.127l4.456-11.0439h3.8516l-10.0264,23.1074H235.291Z"/></g><g class="m"><path class="n" d="M115.2485,676.2432a4.169,4.169,0,0,1-1.6211-1.7315,5.5942,5.5942,0,0,1-.5771-2.5967v-7.4863h1.8843v7.5879a3.28,3.28,0,0,0,.7046,2.1816,2.828,2.828,0,0,0,4.0146.0079,3.2979,3.2979,0,0,0,.6958-2.1895v-7.5879h1.9014v7.4863a5.6988,5.6988,0,0,1-.56,2.58,4.1342,4.1342,0,0,1-1.5957,1.74,5.08,5.08,0,0,1-4.8467.0078Z"/><path class="n" d="M124.44,667.9258h1.7823v1.1367h.0849a2.9816,2.9816,0,0,1,1.1035-1.001,3.3211,3.3211,0,0,1,1.6465-.4072,3.9277,3.9277,0,0,1,2.1221.5937,4.2128,4.2128,0,0,1,1.5024,1.6377,5.3578,5.3578,0,0,1,0,4.7364,4.2078,4.2078,0,0,1-1.5024,1.6386,3.9278,3.9278,0,0,1-2.1221.5938,3.3211,3.3211,0,0,1-1.6465-.4072,3.0393,3.0393,0,0,1-1.1035-.9844h-.0849l.0849,1.2051v3.582H124.44Zm5.6187,6.8574a2.581,2.581,0,0,0,.9507-1.0186,3.13,3.13,0,0,0,.3564-1.5107,3.0843,3.0843,0,0,0-.3564-1.5019,2.5959,2.5959,0,0,0-.9507-1.01,2.4259,2.4259,0,0,0-1.273-.3565,2.3836,2.3836,0,0,0-1.2646.3565,2.62,2.62,0,0,0-.9424,1.01,3.09,3.09,0,0,0-.3564,1.5019,3.1355,3.1355,0,0,0,.3564,1.5107,2.6045,2.6045,0,0,0,.9424,1.0186,2.3835,2.3835,0,0,0,1.2646.3564A2.4257,2.4257,0,0,0,130.0591,674.7832Z"/><path class="n" d="M141.3647,676.6641a2.3769,2.3769,0,0,1-.832-.501,2.767,2.767,0,0,1-.73-2.0244v-4.5664H138.292v-1.6465h1.5112v-2.4444H141.67v2.4444h2.105v1.6465H141.67v4.1767a1.4825,1.4825,0,0,0,.2715,1.0088,1.0223,1.0223,0,0,0,.8828.3486,1.5331,1.5331,0,0,0,.5093-.0771,2.1124,2.1124,0,0,0,.4751-.2461V676.6a3.2663,3.2663,0,0,1-1.3579.2549A3.0775,3.0775,0,0,1,141.3647,676.6641Z"/><path class="n" d="M146.9326,676.252a4.2284,4.2284,0,0,1-1.6123-1.6553,5.0419,5.0419,0,0,1,0-4.6846,4.2284,4.2284,0,0,1,1.6123-1.6553,4.5756,4.5756,0,0,1,2.3428-.6025,4.5248,4.5248,0,0,1,2.3428.61,4.3107,4.3107,0,0,1,1.6123,1.6641,5.0083,5.0083,0,0,1,0,4.668,4.2352,4.2352,0,0,1-1.6123,1.6553,4.8562,4.8562,0,0,1-4.6856,0Zm3.667-1.46a2.5584,2.5584,0,0,0,.9761-1.001,3.1042,3.1042,0,0,0,.3647-1.5371,3.0531,3.0531,0,0,0-.3647-1.5273,2.5832,2.5832,0,0,0-.9761-.9932,2.6954,2.6954,0,0,0-2.6484,0,2.579,2.579,0,0,0-.9761.9932,3.052,3.052,0,0,0-.3647,1.5273,3.1032,3.1032,0,0,0,.3647,1.5371,2.5544,2.5544,0,0,0,.9761,1.001,2.6961,2.6961,0,0,0,2.6484,0Z"/><path class="n" d="M159.8,664.4287h2.2578l5.4321,8.8438h.1016l-.1016-2.3418v-6.502h1.8843V676.583h-1.9863l-5.7036-9.3027h-.1021l.1021,2.3427v6.96H159.8Z"/><path class="n" d="M173.5669,676.252a4.2284,4.2284,0,0,1-1.6123-1.6553,5.0412,5.0412,0,0,1,0-4.6846,4.2284,4.2284,0,0,1,1.6123-1.6553,4.5756,4.5756,0,0,1,2.3428-.6025,4.5242,4.5242,0,0,1,2.3427.61,4.3092,4.3092,0,0,1,1.6123,1.6641,5.0075,5.0075,0,0,1,0,4.668,4.2339,4.2339,0,0,1-1.6123,1.6553,4.856,4.856,0,0,1-4.6855,0Zm3.667-1.46a2.5584,2.5584,0,0,0,.9761-1.001,3.1042,3.1042,0,0,0,.3647-1.5371,3.0531,3.0531,0,0,0-.3647-1.5273,2.5832,2.5832,0,0,0-.9761-.9932,2.6956,2.6956,0,0,0-2.6485,0,2.5788,2.5788,0,0,0-.976.9932,3.0521,3.0521,0,0,0-.3648,1.5273,3.1032,3.1032,0,0,0,.3648,1.5371,2.5541,2.5541,0,0,0,.976,1.001,2.6963,2.6963,0,0,0,2.6485,0Z"/><path class="n" d="M180.9341,667.9258h2.0884l2.393,6.2471h.0684l2.4443-6.2471h2.0371l-3.5991,8.6572H184.499Z"/><path class="n" d="M194.8711,674.8174q.5427-.5435,2.1387-2.1475t2.122-2.1806a7.0228,7.0228,0,0,0,.9761-1.2393,2.3184,2.3184,0,0,0,.2632-1.1377,1.5556,1.5556,0,0,0-.5093-1.1543,1.8945,1.8945,0,0,0-1.375-.4922,1.8272,1.8272,0,0,0-1.2988.4668,2.1733,2.1733,0,0,0-.6533,1.0781l-1.6978-.6962a3.4613,3.4613,0,0,1,.6367-1.2051,3.771,3.771,0,0,1,1.2476-1.002,3.8357,3.8357,0,0,1,1.7993-.4072,4.159,4.159,0,0,1,1.9609.45,3.3009,3.3009,0,0,1,1.3243,1.2217,3.24,3.24,0,0,1,.4668,1.706,3.89,3.89,0,0,1-.5181,1.9268,7.8775,7.8775,0,0,1-1.3154,1.7236q-.34.3223-1.7144,1.6973l-1.3921,1.3916.0337.0683h5.0586v1.6973h-7.5537Z"/><path class="n" d="M204.0884,674.8174q.5427-.5435,2.1387-2.1475t2.122-2.1806a7.0228,7.0228,0,0,0,.9761-1.2393,2.3184,2.3184,0,0,0,.2632-1.1377,1.5556,1.5556,0,0,0-.5093-1.1543,1.8948,1.8948,0,0,0-1.375-.4922,1.8272,1.8272,0,0,0-1.2988.4668,2.1733,2.1733,0,0,0-.6533,1.0781l-1.6978-.6962a3.4613,3.4613,0,0,1,.6367-1.2051,3.771,3.771,0,0,1,1.2476-1.002,3.8357,3.8357,0,0,1,1.7993-.4072,4.159,4.159,0,0,1,1.9609.45,3.3,3.3,0,0,1,1.3242,1.2217,3.239,3.239,0,0,1,.4668,1.706,3.89,3.89,0,0,1-.518,1.9268,7.8749,7.8749,0,0,1-1.3155,1.7236q-.34.3223-1.7143,1.6973l-1.3921,1.3916.0337.0683h5.0586v1.6973h-7.5537Z"/></g></g><g class="m"><g class="m"><path class="g" d="M464.3271,628.333h7.8936a7.88,7.88,0,0,1,3.708.8906,6.9452,6.9452,0,0,1,2.7056,2.4825,6.9537,6.9537,0,0,1,0,7.1933,6.9325,6.9325,0,0,1-2.7056,2.4834,7.8785,7.8785,0,0,1-3.708.8906h-4.3286v8.8487h-3.565Zm7.9576,10.5664a3.8339,3.8339,0,0,0,2.0366-.5244,3.5407,3.5407,0,0,0,1.3052-1.3535,3.5362,3.5362,0,0,0,0-3.4375,3.439,3.439,0,0,0-1.3052-1.3369,3.9282,3.9282,0,0,0-2.0366-.5088h-4.3926v7.1611Z"/><path class="g" d="M484.7139,650.5176a7.856,7.856,0,0,1-2.9605-3.0713,9.0658,9.0658,0,0,1-1.0659-4.4092,9.2125,9.2125,0,0,1,1.0342-4.3125,8.1336,8.1336,0,0,1,2.8808-3.167,7.6484,7.6484,0,0,1,4.2012-1.1777,8.0906,8.0906,0,0,1,4.249,1.082,7.0927,7.0927,0,0,1,2.7373,2.96,9.341,9.341,0,0,1,.939,4.2334,8.1434,8.1434,0,0,1-.0952,1.1142H484.1885a4.9427,4.9427,0,0,0,1.6074,3.4854,4.8775,4.8775,0,0,0,3.2944,1.2256,4.7966,4.7966,0,0,0,2.5938-.6846,5.1253,5.1253,0,0,0,1.7666-1.8623l2.96,1.4a8.7187,8.7187,0,0,1-2.9917,3.1514,8.9513,8.9513,0,0,1-8.705.0322Zm8.45-9.4219a4.0449,4.0449,0,0,0-.5411-1.7021,3.8726,3.8726,0,0,0-1.4482-1.417,4.5916,4.5916,0,0,0-2.3711-.5723,4.2093,4.2093,0,0,0-2.8486,1.0019,5.1977,5.1977,0,0,0-1.6074,2.6895Z"/><path class="g" d="M502.0435,650.9473a5.1086,5.1086,0,0,1-2.1324-1.9414,5.38,5.38,0,0,1-.7641-2.8487,4.7623,4.7623,0,0,1,1.894-3.98,7.6031,7.6031,0,0,1,4.79-1.4638,11.2836,11.2836,0,0,1,2.5781.2705,9.3732,9.3732,0,0,1,1.8144.5888v-.8271a3.04,3.04,0,0,0-1.1137-2.4356,4.3,4.3,0,0,0-2.8648-.9384,5.2259,5.2259,0,0,0-2.3393.541,4.5908,4.5908,0,0,0-1.7666,1.4961l-2.4507-1.878a7.3049,7.3049,0,0,1,2.8008-2.3232,8.6884,8.6884,0,0,1,3.8193-.8281,7.8165,7.8165,0,0,1,5.4429,1.7344,6.2663,6.2663,0,0,1,1.91,4.8857v10.1221h-3.4375v-1.9414h-.1591a5.486,5.486,0,0,1-1.9732,1.75,5.9788,5.9788,0,0,1-2.9282.7A6.8835,6.8835,0,0,1,502.0435,650.9473Zm6.0156-2.8174a4.315,4.315,0,0,0,1.5918-1.6231,4.4073,4.4073,0,0,0,.5727-2.1963,7.1572,7.1572,0,0,0-1.7026-.6679,7.9322,7.9322,0,0,0-2.0215-.2549,4.4389,4.4389,0,0,0-2.8965.7793,2.5246,2.5246,0,0,0-.9228,2.0215,2.2767,2.2767,0,0,0,.8594,1.83,3.3633,3.3633,0,0,0,2.228.7168A4.4023,4.4023,0,0,0,508.0591,648.13Z"/><path class="g" d="M517.481,628.333h3.5009v13.2725h.0957L527.73,634.89h4.3921v.1905l-6.3023,6.27,6.4932,9.58v.1914h-4.1694l-4.7745-7.3526-2.3872,2.3233v5.0293H517.481Z"/><path class="g" d="M534.4453,639.7588H544.917v2.9922H534.4453Z"/><path class="g" d="M549.5317,628.333h3.565v9.4531h10.5674V628.333h3.5337v22.7891h-3.5337v-9.9629H553.0967v9.9629h-3.565Z"/><path class="g" d="M575.0581,650.501a7.9426,7.9426,0,0,1-3.0244-3.1026,9.4571,9.4571,0,0,1,0-8.7851,7.9516,7.9516,0,0,1,3.0244-3.1035,8.5706,8.5706,0,0,1,4.3926-1.13,8.4669,8.4669,0,0,1,4.3916,1.1465,8.0572,8.0572,0,0,1,3.0244,3.1191,9.3918,9.3918,0,0,1,0,8.7529,7.9426,7.9426,0,0,1-3.0244,3.1026,9.1013,9.1013,0,0,1-8.7842,0Zm6.875-2.7373a4.7982,4.7982,0,0,0,1.83-1.878,5.8112,5.8112,0,0,0,.6846-2.88,5.7312,5.7312,0,0,0-.6846-2.8653,4.8324,4.8324,0,0,0-1.83-1.8613,5.0516,5.0516,0,0,0-4.9658,0,4.8262,4.8262,0,0,0-1.83,1.8613,5.7309,5.7309,0,0,0-.6836,2.8653,5.8109,5.8109,0,0,0,.6836,2.88,4.7921,4.7921,0,0,0,1.83,1.878,5.0448,5.0448,0,0,0,4.9658,0Z"/><path class="g" d="M591.0044,628.333h3.501v22.7891h-3.501Z"/><path class="g" d="M598.9458,632.1045a2.3814,2.3814,0,1,1,1.6709.6846A2.2745,2.2745,0,0,1,598.9458,632.1045Zm-.0791,2.7851h3.501v16.2325h-3.501Z"/><path class="g" d="M609.5288,650.5176a7.8772,7.8772,0,0,1-2.8164-3.0713,10.0412,10.0412,0,0,1,0-8.8809,7.8772,7.8772,0,0,1,2.8164-3.0713,7.36,7.36,0,0,1,3.9785-1.1142,6.2324,6.2324,0,0,1,3.0879.7637,5.5949,5.5949,0,0,1,2.0684,1.8779h.1592l-.1592-2.291V628.333h3.501v22.7891h-3.3418v-2.1006h-.1592a5.6967,5.6967,0,0,1-2.0684,1.8457,6.2218,6.2218,0,0,1-3.0879.7637A7.3584,7.3584,0,0,1,609.5288,650.5176Zm6.8594-2.77a4.8979,4.8979,0,0,0,1.7666-1.9091,5.8848,5.8848,0,0,0,.668-2.833,5.7955,5.7955,0,0,0-.668-2.8174,4.9271,4.9271,0,0,0-1.7666-1.8936,4.4848,4.4848,0,0,0-2.3711-.6679,4.5645,4.5645,0,0,0-2.3877.6679,4.87,4.87,0,0,0-1.7822,1.8936,5.7955,5.7955,0,0,0-.668,2.8174,5.8848,5.8848,0,0,0,.668,2.833,4.8411,4.8411,0,0,0,1.7822,1.9091,4.5647,4.5647,0,0,0,2.3877.669A4.485,4.485,0,0,0,616.3882,647.748Z"/><path class="g" d="M628.0542,650.9473a5.1036,5.1036,0,0,1-2.1328-1.9414,5.3743,5.3743,0,0,1-.7637-2.8487,4.762,4.762,0,0,1,1.8936-3.98,7.6037,7.6037,0,0,1,4.79-1.4638,11.2824,11.2824,0,0,1,2.5781.2705,9.3721,9.3721,0,0,1,1.8145.5888v-.8271a3.0372,3.0372,0,0,0-1.1143-2.4356,4.297,4.297,0,0,0-2.8642-.9384,5.2312,5.2312,0,0,0-2.34.541,4.6025,4.6025,0,0,0-1.7666,1.4961l-2.45-1.878A7.3049,7.3049,0,0,1,628.5,635.208a8.6871,8.6871,0,0,1,3.8193-.8281,7.8141,7.8141,0,0,1,5.4424,1.7344,6.2646,6.2646,0,0,1,1.91,4.8857v10.1221h-3.4375v-1.9414h-.1592a5.4841,5.4841,0,0,1-1.9736,1.75,5.9772,5.9772,0,0,1-2.9278.7A6.8828,6.8828,0,0,1,628.0542,650.9473ZM634.07,648.13a4.3153,4.3153,0,0,0,1.5908-1.6231,4.4068,4.4068,0,0,0,.5733-2.1963,7.1563,7.1563,0,0,0-1.7031-.6679,7.925,7.925,0,0,0-2.02-.2549,4.4376,4.4376,0,0,0-2.8965.7793,2.5217,2.5217,0,0,0-.9229,2.0215,2.2755,2.2755,0,0,0,.8594,1.83,3.3621,3.3621,0,0,0,2.2275.7168A4.4051,4.4051,0,0,0,634.07,648.13Z"/><path class="g" d="M648.1377,650.2305,641.39,634.89h3.9156l4.583,11.044h.1269l4.4561-11.044h3.8515l-10.0263,23.1075h-3.6914Z"/></g><g class="m"><path class="n" d="M503.3657,664.4307h2.2578l5.4322,8.8437h.1015l-.1015-2.3418v-6.5019H512.94V676.585h-1.9863l-5.7036-9.3028h-.1021l.1021,2.3428v6.96h-1.8843Z"/><path class="n" d="M517.1323,676.2539a4.2278,4.2278,0,0,1-1.6123-1.6553,5.0417,5.0417,0,0,1,0-4.6845,4.2278,4.2278,0,0,1,1.6123-1.6553,4.5749,4.5749,0,0,1,2.3428-.6026,4.5249,4.5249,0,0,1,2.3428.61,4.31,4.31,0,0,1,1.6123,1.6641,5.0081,5.0081,0,0,1,0,4.6679,4.2346,4.2346,0,0,1-1.6123,1.6553,4.8562,4.8562,0,0,1-4.6856,0Zm3.667-1.46a2.5581,2.5581,0,0,0,.9761-1.0009,3.1037,3.1037,0,0,0,.3647-1.5371,3.0527,3.0527,0,0,0-.3647-1.5274,2.5829,2.5829,0,0,0-.9761-.9931,2.6954,2.6954,0,0,0-2.6484,0,2.5794,2.5794,0,0,0-.9761.9931,3.0527,3.0527,0,0,0-.3647,1.5274,3.1037,3.1037,0,0,0,.3647,1.5371,2.5548,2.5548,0,0,0,.9761,1.0009,2.6954,2.6954,0,0,0,2.6484,0Z"/><path class="n" d="M524.5,667.9277h2.0884l2.3931,6.2471h.0683l2.4444-6.2471h2.0371l-3.5992,8.6573h-1.8671Z"/><path class="n" d="M538.4365,674.8193q.5427-.5435,2.1387-2.1474t2.1221-2.1807a7.0165,7.0165,0,0,0,.976-1.2392,2.3184,2.3184,0,0,0,.2632-1.1377,1.5556,1.5556,0,0,0-.5093-1.1543,1.8941,1.8941,0,0,0-1.375-.4922,1.8267,1.8267,0,0,0-1.2988.4668,2.1741,2.1741,0,0,0-.6533,1.0781l-1.6978-.6963a3.4609,3.4609,0,0,1,.6368-1.2051,3.7693,3.7693,0,0,1,1.2475-1.0019,3.8358,3.8358,0,0,1,1.7993-.4073,4.16,4.16,0,0,1,1.961.45,3.3007,3.3007,0,0,1,1.3242,1.2217,3.24,3.24,0,0,1,.4668,1.7061,3.89,3.89,0,0,1-.5181,1.9267,7.88,7.88,0,0,1-1.3154,1.7237q-.34.3222-1.7144,1.6972l-1.3921,1.3916.0337.0684H545.99v1.6973h-7.5537Z"/><path class="n" d="M548.1294,675.9912l5.1435-9.2012-.0336-.0507H547.62v-1.7657h7.69v1.8672l-5.5679,10.0156Z"/><path class="n" d="M557.16,670.5244h5.5849V672.12H557.16Z"/><path class="n" d="M565.2065,664.4307h3.8873a6.8109,6.8109,0,0,1,3.2934.7636,5.2818,5.2818,0,0,1,2.1641,2.1475,7.0131,7.0131,0,0,1,0,6.332,5.2818,5.2818,0,0,1-2.1641,2.1475,6.811,6.811,0,0,1-3.2934.7637h-3.8873Zm3.8536,10.3379a4.3371,4.3371,0,0,0,3.1826-1.129,4.84,4.84,0,0,0,0-6.2548,4.3176,4.3176,0,0,0-3.1826-1.1377h-1.9522v8.5215Z"/><path class="n" d="M578.5908,676.2627a4.1875,4.1875,0,0,1-1.5786-1.6387,4.8277,4.8277,0,0,1-.5684-2.3506,4.9166,4.9166,0,0,1,.5513-2.3007,4.3376,4.3376,0,0,1,1.5366-1.6885,4.073,4.073,0,0,1,2.2408-.628,4.3126,4.3126,0,0,1,2.2661.5772,3.7841,3.7841,0,0,1,1.46,1.5781,4.9862,4.9862,0,0,1,.5,2.2578,4.3036,4.3036,0,0,1-.0508.5948H578.311a2.6358,2.6358,0,0,0,.857,1.8584,2.6039,2.6039,0,0,0,1.7573.6533,2.5547,2.5547,0,0,0,1.3833-.3653,2.7428,2.7428,0,0,0,.9424-.9921l1.5786.7461a4.647,4.647,0,0,1-1.5957,1.6806,4.7738,4.7738,0,0,1-4.6431.0176Zm4.5073-5.0254a2.1739,2.1739,0,0,0-.2885-.9082,2.07,2.07,0,0,0-.7725-.7549,2.4456,2.4456,0,0,0-1.2646-.3056,2.2455,2.2455,0,0,0-1.52.5351,2.768,2.768,0,0,0-.8569,1.4336Z"/><path class="n" d="M588.4707,676.2627a4.1531,4.1531,0,0,1-1.5957-1.6387,5.2175,5.2175,0,0,1,0-4.7363,4.1571,4.1571,0,0,1,1.5957-1.6377,4.5479,4.5479,0,0,1,2.3174-.5938,4.3906,4.3906,0,0,1,2.4272.6446,3.5461,3.5461,0,0,1,1.4258,1.749l-1.7143.7129a2.162,2.162,0,0,0-2.19-1.375,2.4116,2.4116,0,0,0-1.2812.3564,2.5574,2.5574,0,0,0-.9341,1.01,3.1483,3.1483,0,0,0-.3477,1.502,3.1946,3.1946,0,0,0,.3477,1.5107,2.5435,2.5435,0,0,0,.9341,1.0186,2.4116,2.4116,0,0,0,1.2812.3564,2.5967,2.5967,0,0,0,1.4009-.3643,2.3136,2.3136,0,0,0,.8911-1.0439l1.6807.73a3.9521,3.9521,0,0,1-1.4942,1.749,4.3905,4.3905,0,0,1-2.4272.6445A4.5478,4.5478,0,0,1,588.4707,676.2627Z"/><path class="n" d="M600.0054,674.8193q.5427-.5435,2.1386-2.1474t2.1221-2.1807a7.0229,7.0229,0,0,0,.9761-1.2392,2.3184,2.3184,0,0,0,.2632-1.1377,1.556,1.556,0,0,0-.5093-1.1543,1.8944,1.8944,0,0,0-1.375-.4922,1.8266,1.8266,0,0,0-1.2988.4668,2.1743,2.1743,0,0,0-.6534,1.0781l-1.6977-.6963a3.4622,3.4622,0,0,1,.6367-1.2051,3.77,3.77,0,0,1,1.2476-1.0019,3.8358,3.8358,0,0,1,1.7993-.4073,4.1593,4.1593,0,0,1,1.9609.45,3.3035,3.3035,0,0,1,1.3238,1.2217,3.2354,3.2354,0,0,1,.4667,1.7061,3.8949,3.8949,0,0,1-.5175,1.9267,7.909,7.909,0,0,1-1.3155,1.7237q-.34.3222-1.7143,1.6972l-1.3921,1.3916.0337.0684H607.56v1.6973h-7.5542Z"/><path class="n" d="M611.5146,676.05a5.1534,5.1534,0,0,1-1.6718-2.1894,8.4366,8.4366,0,0,1,0-6.1788,5.0994,5.0994,0,0,1,1.6718-2.1816,4.3415,4.3415,0,0,1,5.0166,0,5.1356,5.1356,0,0,1,1.6631,2.1816,8.4366,8.4366,0,0,1,0,6.1788,5.1613,5.1613,0,0,1-1.6718,2.1894,4.29,4.29,0,0,1-5.0079,0Zm4.0313-1.5273a3.6,3.6,0,0,0,1.002-1.545,6.5311,6.5311,0,0,0,.3476-2.1982,6.6123,6.6123,0,0,0-.3476-2.207,3.5419,3.5419,0,0,0-1.002-1.545,2.3538,2.3538,0,0,0-3.0469,0,3.58,3.58,0,0,0-.9931,1.545,6.61,6.61,0,0,0-.3477,2.207,6.5286,6.5286,0,0,0,.3477,2.1982,3.6389,3.6389,0,0,0,.9931,1.545,2.3261,2.3261,0,0,0,3.0469,0Z"/></g></g><g class="m"><g class="m"><path class="g" d="M876.3984,628.333h13.8457v3.4053H879.9629v6.5566h9.2617v3.374h-9.2617v9.4532h-3.5645Z"/><path class="g" d="M893.4736,632.1045a2.3826,2.3826,0,1,1,1.6709.6846A2.2748,2.2748,0,0,1,893.4736,632.1045Zm-.0791,2.7851h3.501v16.2325h-3.501Z"/><path class="g" d="M901.2559,634.89h3.3418v2.1319h.1591a5.3472,5.3472,0,0,1,2.085-1.8936,6.11,6.11,0,0,1,2.9443-.748,5.7119,5.7119,0,0,1,4.503,1.7344,6.8568,6.8568,0,0,1,1.5449,4.7275v10.28h-3.502v-9.8037a3.7019,3.7019,0,0,0-.9394-2.8008,3.6146,3.6146,0,0,0-2.5938-.8906,3.5489,3.5489,0,0,0-2.1.6523,4.3435,4.3435,0,0,0-1.4336,1.7344,5.3992,5.3992,0,0,0-.5088,2.3232v8.7852h-3.5009Z"/><path class="g" d="M921.5938,650.9473a5.1066,5.1066,0,0,1-2.1319-1.9414,5.384,5.384,0,0,1-.7646-2.8487,4.7627,4.7627,0,0,1,1.8945-3.98,7.602,7.602,0,0,1,4.79-1.4638,11.2839,11.2839,0,0,1,2.5782.2705,9.3732,9.3732,0,0,1,1.8144.5888v-.8271a3.04,3.04,0,0,0-1.1142-2.4356,4.2956,4.2956,0,0,0-2.8643-.9384,5.2246,5.2246,0,0,0-2.3389.541,4.5973,4.5973,0,0,0-1.7675,1.4961l-2.45-1.878a7.3112,7.3112,0,0,1,2.8007-2.3232,8.6873,8.6873,0,0,1,3.8194-.8281,7.8184,7.8184,0,0,1,5.4433,1.7344A6.2675,6.2675,0,0,1,933.2119,641v10.1221h-3.4375v-1.9414h-.1592a5.489,5.489,0,0,1-1.9726,1.75,5.9835,5.9835,0,0,1-2.9287.7A6.8871,6.8871,0,0,1,921.5938,650.9473Zm6.0156-2.8174a4.3041,4.3041,0,0,0,1.5918-1.6231,4.3974,4.3974,0,0,0,.5732-2.1963,7.1632,7.1632,0,0,0-1.7021-.6679,7.9436,7.9436,0,0,0-2.0215-.2549,4.4378,4.4378,0,0,0-2.8965.7793,2.5254,2.5254,0,0,0-.9238,2.0215,2.2783,2.2783,0,0,0,.8593,1.83,3.3668,3.3668,0,0,0,2.2286.7168A4.3992,4.3992,0,0,0,927.6094,648.13Z"/><path class="g" d="M937.0312,628.333h3.501v22.7891h-3.501Z"/></g><g class="m"><path class="n" d="M870.5879,664.4307h3.8867a6.8107,6.8107,0,0,1,3.293.7636,5.2762,5.2762,0,0,1,2.164,2.1475,7.0082,7.0082,0,0,1,0,6.332,5.2762,5.2762,0,0,1-2.164,2.1475,6.8107,6.8107,0,0,1-3.293.7637h-3.8867Zm3.8535,10.3379a4.3352,4.3352,0,0,0,3.1816-1.129,4.8387,4.8387,0,0,0,0-6.2548,4.3158,4.3158,0,0,0-3.1816-1.1377h-1.9531v8.5215Z"/><path class="n" d="M883.9727,676.2627a4.1846,4.1846,0,0,1-1.5791-1.6387,4.8222,4.8222,0,0,1-.5684-2.3506,4.911,4.911,0,0,1,.5518-2.3007,4.328,4.328,0,0,1,1.5361-1.6885,4.0741,4.0741,0,0,1,2.2412-.628,4.31,4.31,0,0,1,2.2656.5772,3.7876,3.7876,0,0,1,1.46,1.5781,4.9929,4.9929,0,0,1,.501,2.2578,4.466,4.466,0,0,1-.0508.5948h-6.6377a2.6353,2.6353,0,0,0,.8564,1.8584,2.6063,2.6063,0,0,0,1.7578.6533,2.5545,2.5545,0,0,0,1.3829-.3653,2.7493,2.7493,0,0,0,.9433-.9921l1.5781.7461a4.65,4.65,0,0,1-1.5957,1.6806,4.7727,4.7727,0,0,1-4.6425.0176Zm4.5068-5.0254a2.1732,2.1732,0,0,0-.2881-.9082,2.068,2.068,0,0,0-.7734-.7549,2.4422,2.4422,0,0,0-1.2637-.3056,2.2425,2.2425,0,0,0-1.5195.5351,2.7623,2.7623,0,0,0-.8575,1.4336Z"/><path class="n" d="M893.8516,676.2627a4.1531,4.1531,0,0,1-1.5957-1.6387,5.2175,5.2175,0,0,1,0-4.7363,4.1571,4.1571,0,0,1,1.5957-1.6377,4.5475,4.5475,0,0,1,2.3173-.5938,4.3906,4.3906,0,0,1,2.4268.6446,3.5408,3.5408,0,0,1,1.4258,1.749l-1.7139.7129a2.1616,2.1616,0,0,0-2.19-1.375,2.416,2.416,0,0,0-1.2813.3564,2.5613,2.5613,0,0,0-.9336,1.01,3.1424,3.1424,0,0,0-.3476,1.502,3.1887,3.1887,0,0,0,.3476,1.5107,2.5473,2.5473,0,0,0,.9336,1.0186,2.416,2.416,0,0,0,1.2813.3564,2.5978,2.5978,0,0,0,1.4014-.3643,2.3206,2.3206,0,0,0,.8916-1.0439l1.68.73a3.9456,3.9456,0,0,1-1.4941,1.749,4.3906,4.3906,0,0,1-2.4268.6445A4.5475,4.5475,0,0,1,893.8516,676.2627Z"/><path class="n" d="M905.3867,674.8193q.542-.5435,2.1387-2.1474t2.1211-2.1807a7,7,0,0,0,.9765-1.2392,2.313,2.313,0,0,0,.2637-1.1377,1.5546,1.5546,0,0,0-.51-1.1543,1.8952,1.8952,0,0,0-1.375-.4922,1.8268,1.8268,0,0,0-1.2989.4668,2.1741,2.1741,0,0,0-.6533,1.0781l-1.6982-.6963a3.4756,3.4756,0,0,1,.6367-1.2051,3.7765,3.7765,0,0,1,1.248-1.0019,3.8367,3.8367,0,0,1,1.7989-.4073,4.1565,4.1565,0,0,1,1.9609.45,3.2878,3.2878,0,0,1,1.3242,1.2217,3.2355,3.2355,0,0,1,.4668,1.7061,3.8846,3.8846,0,0,1-.5176,1.9267,7.88,7.88,0,0,1-1.3154,1.7237q-.34.3222-1.7139,1.6972l-1.3925,1.3916.0332.0684H912.94v1.6973h-7.5528Z"/><path class="n" d="M917.252,667.5029l-1.9014,1.375-.95-1.4424,3.4121-2.4619h1.3066V676.585H917.252Z"/><path class="n" d="M921.6816,670.5244h5.586V672.12h-5.586Z"/><path class="n" d="M929.1514,674.8193q.5435-.5435,2.1386-2.1474t2.1221-2.1807a7.055,7.055,0,0,0,.9766-1.2392,2.3238,2.3238,0,0,0,.2627-1.1377,1.5573,1.5573,0,0,0-.5088-1.1543,1.8967,1.8967,0,0,0-1.375-.4922,1.8249,1.8249,0,0,0-1.2988.4668,2.1753,2.1753,0,0,0-.6543,1.0781l-1.6973-.6963a3.4622,3.4622,0,0,1,.6367-1.2051,3.7576,3.7576,0,0,1,1.2481-1.0019,3.8308,3.8308,0,0,1,1.7988-.4073,4.159,4.159,0,0,1,1.9609.45,3.3007,3.3007,0,0,1,1.3242,1.2217,3.2437,3.2437,0,0,1,.4668,1.7061,3.8949,3.8949,0,0,1-.5175,1.9267,7.8854,7.8854,0,0,1-1.3164,1.7237q-.34.3222-1.7139,1.6972l-1.3916,1.3916.0332.0684h5.0586v1.6973h-7.5537Z"/><path class="n" d="M940.6689,676.5088a4.0415,4.0415,0,0,1-1.4511-1.0527,3.999,3.999,0,0,1-.8828-1.74l1.6806-.6621a2.88,2.88,0,0,0,.8233,1.4775,2.1009,2.1009,0,0,0,1.4853.56,2.184,2.184,0,0,0,1.5781-.6025,2.0515,2.0515,0,0,0,.6289-1.5528,2.1315,2.1315,0,0,0-.6191-1.57,2.1533,2.1533,0,0,0-1.5879-.62,2.2506,2.2506,0,0,0-1.0185.2383,2.0941,2.0941,0,0,0-.78.6621l-1.8506-.8154.7129-5.8565h6.3144v1.6973h-4.7529l-.4238,3.0557.1016.0175a3.2219,3.2219,0,0,1,2.0537-.6962,3.6868,3.6868,0,0,1,3.208,1.8671,4.1658,4.1658,0,0,1-.0166,4.0235,3.7426,3.7426,0,0,1-1.4512,1.4092,4.3638,4.3638,0,0,1-3.752.1611Z"/></g></g><g class="m"><g class="m"><path class="g" d="M1058.1875,628.3311h7.8945a7.8763,7.8763,0,0,1,3.7071.8906,6.9461,6.9461,0,0,1,2.706,2.4824,6.9509,6.9509,0,0,1,0,7.1934,6.9344,6.9344,0,0,1-2.706,2.4834,7.8775,7.8775,0,0,1-3.7071.8906h-4.3291V651.12h-3.5654Zm7.958,10.5664a3.8307,3.8307,0,0,0,2.0361-.5245,3.5356,3.5356,0,0,0,1.3057-1.3535,3.5327,3.5327,0,0,0,0-3.4375,3.4362,3.4362,0,0,0-1.3057-1.3369,3.9258,3.9258,0,0,0-2.0361-.5088h-4.3926v7.1612Z"/><path class="g" d="M1078.6543,650.499a7.933,7.933,0,0,1-3.0234-3.1025,9.4566,9.4566,0,0,1,0-8.7852,7.9422,7.9422,0,0,1,3.0234-3.1035,8.5713,8.5713,0,0,1,4.3926-1.13,8.4766,8.4766,0,0,1,4.3926,1.1465,8.069,8.069,0,0,1,3.0234,3.1192,9.3918,9.3918,0,0,1,0,8.7529,7.9535,7.9535,0,0,1-3.0234,3.1025,9.1033,9.1033,0,0,1-8.7852,0Zm6.875-2.7373a4.7986,4.7986,0,0,0,1.83-1.8779,5.8113,5.8113,0,0,0,.6836-2.88,5.7308,5.7308,0,0,0-.6836-2.8652,4.8327,4.8327,0,0,0-1.83-1.8614,5.05,5.05,0,0,0-4.9648,0,4.8121,4.8121,0,0,0-1.83,1.8614,5.72,5.72,0,0,0-.6856,2.8652,5.8,5.8,0,0,0,.6856,2.88,4.7784,4.7784,0,0,0,1.83,1.8779,5.0429,5.0429,0,0,0,4.9648,0Z"/><path class="g" d="M1095.9375,650.4043a6.6189,6.6189,0,0,1-2.5146-3.1357l3.1191-1.3682a4.3669,4.3669,0,0,0,1.6074,1.9414,4.2729,4.2729,0,0,0,2.3711.668,4.7371,4.7371,0,0,0,2.1963-.461,1.4811,1.4811,0,0,0,.8906-1.3847,1.5968,1.5968,0,0,0-.7636-1.4,7.6021,7.6021,0,0,0-2.3555-.8916l-1.9414-.4776a6.98,6.98,0,0,1-3.2149-1.6865,4.0365,4.0365,0,0,1-1.2724-3.0557,3.9727,3.9727,0,0,1,.8427-2.5146,5.4378,5.4378,0,0,1,2.2764-1.6709,8.1194,8.1194,0,0,1,3.1192-.5889,8.4008,8.4008,0,0,1,3.9785.9073,5.3789,5.3789,0,0,1,2.4834,2.6259l-3.0567,1.3369a3.4171,3.4171,0,0,0-3.373-1.8779,3.7754,3.7754,0,0,0-1.9737.4776,1.4168,1.4168,0,0,0-.7959,1.2412,1.4323,1.4323,0,0,0,.6055,1.1933,5.1961,5.1961,0,0,0,1.7813.78l2.3877.6045a7.6784,7.6784,0,0,1,3.6123,1.83,4.0919,4.0919,0,0,1,1.2256,3.0078,4.35,4.35,0,0,1-.875,2.6894,5.6469,5.6469,0,0,1-2.4034,1.7989,8.7008,8.7008,0,0,1-3.374.6357A7.9236,7.9236,0,0,1,1095.9375,650.4043Z"/><path class="g" d="M1114.6523,651.2725a4.4263,4.4263,0,0,1-1.5585-.9405,5.18,5.18,0,0,1-1.3692-3.7949v-8.5625h-2.833v-3.0869h2.833v-4.584h3.501v4.584h3.9463v3.0869h-3.9463v7.8311a2.781,2.781,0,0,0,.5088,1.8925,1.9176,1.9176,0,0,0,1.6562.6524,2.9131,2.9131,0,0,0,.9541-.1426,3.9616,3.9616,0,0,0,.8916-.4619v3.4062a6.13,6.13,0,0,1-2.5468.4766A5.7894,5.7894,0,0,1,1114.6523,651.2725Z"/><path class="g" d="M1122.4824,639.7568h10.4717v2.9922h-10.4717Z"/><path class="g" d="M1137.5684,628.3311h3.5654v9.4531h10.5674v-9.4531h3.5332V651.12h-3.5332v-9.9629h-10.5674V651.12h-3.5654Z"/><path class="g" d="M1163.0957,650.499a7.9423,7.9423,0,0,1-3.0244-3.1025,9.4643,9.4643,0,0,1,0-8.7852,7.9516,7.9516,0,0,1,3.0244-3.1035,8.5713,8.5713,0,0,1,4.3926-1.13,8.4678,8.4678,0,0,1,4.3916,1.1465,8.0575,8.0575,0,0,1,3.0244,3.1192,9.3918,9.3918,0,0,1,0,8.7529,7.9423,7.9423,0,0,1-3.0244,3.1025,9.1013,9.1013,0,0,1-8.7842,0Zm6.875-2.7373a4.7979,4.7979,0,0,0,1.83-1.8779,5.8116,5.8116,0,0,0,.6846-2.88,5.731,5.731,0,0,0-.6846-2.8652,4.832,4.832,0,0,0-1.83-1.8614,5.0516,5.0516,0,0,0-4.9658,0,4.8258,4.8258,0,0,0-1.83,1.8614,5.7308,5.7308,0,0,0-.6836,2.8652,5.8113,5.8113,0,0,0,.6836,2.88,4.7919,4.7919,0,0,0,1.83,1.8779,5.0448,5.0448,0,0,0,4.9658,0Z"/><path class="g" d="M1179.042,628.3311h3.501V651.12h-3.501Z"/><path class="g" d="M1186.9834,632.1025a2.3814,2.3814,0,1,1,1.6709.6846A2.2742,2.2742,0,0,1,1186.9834,632.1025Zm-.0791,2.7852h3.501V651.12h-3.501Z"/><path class="g" d="M1197.5664,650.5156a7.8765,7.8765,0,0,1-2.8164-3.0713,10.041,10.041,0,0,1,0-8.8808,7.8772,7.8772,0,0,1,2.8164-3.0713,7.3592,7.3592,0,0,1,3.9785-1.1143,6.2324,6.2324,0,0,1,3.0879.7637,5.5958,5.5958,0,0,1,2.0684,1.8779h.1592l-.1592-2.291v-6.3974h3.5009V651.12H1206.86V649.02h-.1592a5.6967,5.6967,0,0,1-2.0684,1.8457,6.2218,6.2218,0,0,1-3.0879.7637A7.3584,7.3584,0,0,1,1197.5664,650.5156Zm6.8594-2.7695a4.8975,4.8975,0,0,0,1.7666-1.9092,5.8846,5.8846,0,0,0,.668-2.833,5.7958,5.7958,0,0,0-.668-2.8174,4.9268,4.9268,0,0,0-1.7666-1.8935,4.4849,4.4849,0,0,0-2.3711-.668,4.5646,4.5646,0,0,0-2.3877.668,4.8692,4.8692,0,0,0-1.7822,1.8935,5.7958,5.7958,0,0,0-.668,2.8174,5.8846,5.8846,0,0,0,.668,2.833,4.8407,4.8407,0,0,0,1.7822,1.9092,4.5655,4.5655,0,0,0,2.3877.6689A4.4858,4.4858,0,0,0,1204.4258,647.7461Z"/><path class="g" d="M1216.0908,650.9453a5.103,5.103,0,0,1-2.1328-1.9414,5.3742,5.3742,0,0,1-.7637-2.8486,4.7617,4.7617,0,0,1,1.8936-3.98,7.604,7.604,0,0,1,4.79-1.4639,11.2839,11.2839,0,0,1,2.5782.27,9.3793,9.3793,0,0,1,1.8144.5889v-.8272a3.037,3.037,0,0,0-1.1143-2.4355,4.2971,4.2971,0,0,0-2.8642-.9385,5.2329,5.2329,0,0,0-2.34.541,4.6034,4.6034,0,0,0-1.7666,1.4961l-2.45-1.8779a7.3028,7.3028,0,0,1,2.8007-2.3232,8.6873,8.6873,0,0,1,3.8194-.8282,7.815,7.815,0,0,1,5.4424,1.7344,6.2651,6.2651,0,0,1,1.91,4.8857V651.12h-3.4375v-1.9414h-.1592a5.4832,5.4832,0,0,1-1.9736,1.75,5.9769,5.9769,0,0,1-2.9277.7A6.8819,6.8819,0,0,1,1216.0908,650.9453Zm6.0156-2.8174a4.3146,4.3146,0,0,0,1.5909-1.623,4.4077,4.4077,0,0,0,.5732-2.1963,7.1521,7.1521,0,0,0-1.7031-.668,7.9244,7.9244,0,0,0-2.02-.2549,4.4378,4.4378,0,0,0-2.8965.7793,2.5218,2.5218,0,0,0-.9229,2.0215,2.2752,2.2752,0,0,0,.8594,1.83,3.3622,3.3622,0,0,0,2.2276.7168A4.4048,4.4048,0,0,0,1222.1064,648.1279Z"/><path class="g" d="M1236.1748,650.2285l-6.7471-15.3408h3.9151l4.583,11.0439h.1269l4.4561-11.0439h3.8516l-10.0264,23.1074h-3.6914Z"/></g><g class="m"><path class="n" d="M1102.7852,664.4287h3.8877a6.8119,6.8119,0,0,1,3.2939.7637,5.2876,5.2876,0,0,1,2.1641,2.1474,7.0175,7.0175,0,0,1,0,6.3321,5.287,5.287,0,0,1-2.1641,2.1474,6.8119,6.8119,0,0,1-3.2939.7637h-3.8877Zm3.8535,10.3379a4.3391,4.3391,0,0,0,3.1836-1.1289,4.842,4.842,0,0,0,0-6.2549,4.3193,4.3193,0,0,0-3.1836-1.1377h-1.9512v8.5215Z"/><path class="n" d="M1116.17,676.2607a4.1888,4.1888,0,0,1-1.5781-1.6386,4.8332,4.8332,0,0,1-.5684-2.3506,4.9223,4.9223,0,0,1,.5508-2.3008,4.3478,4.3478,0,0,1,1.5371-1.6885,4.0721,4.0721,0,0,1,2.24-.6279,4.3153,4.3153,0,0,1,2.2666.5771,3.7818,3.7818,0,0,1,1.46,1.5782,4.9792,4.9792,0,0,1,.5,2.2578,4.1513,4.1513,0,0,1-.0508.5947h-6.6367a2.6359,2.6359,0,0,0,.8574,1.8584,2.6017,2.6017,0,0,0,1.7569.6533,2.5563,2.5563,0,0,0,1.3838-.3652,2.7364,2.7364,0,0,0,.9414-.9922l1.5791.7461a4.6432,4.6432,0,0,1-1.5957,1.6807,4.3807,4.3807,0,0,1-2.36.6113A4.4279,4.4279,0,0,1,1116.17,676.2607Zm4.5078-5.0253a2.1753,2.1753,0,0,0-.289-.9083,2.0693,2.0693,0,0,0-.7715-.7548,2.4494,2.4494,0,0,0-1.2656-.3057,2.2478,2.2478,0,0,0-1.52.5352,2.7731,2.7731,0,0,0-.8564,1.4336Z"/><path class="n" d="M1126.05,676.2607a4.1522,4.1522,0,0,1-1.5957-1.6386,5.2177,5.2177,0,0,1,0-4.7364,4.1571,4.1571,0,0,1,1.5957-1.6377,4.5478,4.5478,0,0,1,2.3174-.5937,4.3911,4.3911,0,0,1,2.4277.6445,3.5516,3.5516,0,0,1,1.4258,1.7491l-1.7148.7128a2.1623,2.1623,0,0,0-2.19-1.375,2.4073,2.4073,0,0,0-1.2812.3565,2.5543,2.5543,0,0,0-.9346,1.01,3.1525,3.1525,0,0,0-.3477,1.5019,3.1994,3.1994,0,0,0,.3477,1.5107,2.54,2.54,0,0,0,.9346,1.0186,2.4073,2.4073,0,0,0,1.2812.3564,2.5961,2.5961,0,0,0,1.4-.3642,2.3069,2.3069,0,0,0,.8906-1.044l1.6817.73a3.9582,3.9582,0,0,1-1.4942,1.7491,4.3919,4.3919,0,0,1-2.4277.6445A4.5479,4.5479,0,0,1,1126.05,676.2607Z"/><path class="n" d="M1137.584,674.8174q.5434-.5435,2.1387-2.1475t2.123-2.1806a7.0391,7.0391,0,0,0,.9756-1.2393,2.3238,2.3238,0,0,0,.2627-1.1377,1.557,1.557,0,0,0-.5088-1.1543,1.894,1.894,0,0,0-1.375-.4922,1.8272,1.8272,0,0,0-1.2988.4668,2.1743,2.1743,0,0,0-.6534,1.0781l-1.6972-.6962a3.4447,3.4447,0,0,1,.6367-1.2051,3.7628,3.7628,0,0,1,1.2471-1.002,3.8349,3.8349,0,0,1,1.8-.4072,4.1622,4.1622,0,0,1,1.9609.45,3.313,3.313,0,0,1,1.3242,1.2217,3.2436,3.2436,0,0,1,.4668,1.706,3.8962,3.8962,0,0,1-.5185,1.9268,7.878,7.878,0,0,1-1.3155,1.7236q-.34.3223-1.7148,1.6973l-1.3916,1.3916.0342.0683h5.0586v1.6973h-7.5547Z"/><path class="n" d="M1148.7207,676.3047a3.86,3.86,0,0,1-1.4434-1.4639,3.94,3.94,0,0,1-.51-1.9472,4.65,4.65,0,0,1,.3906-1.8877A12.7755,12.7755,0,0,1,1148.3125,669l2.9375-4.3,1.4766,1.0146-2.6485,3.6709.0684.0674a2.2345,2.2345,0,0,1,1.1543-.2715,3.2923,3.2923,0,0,1,1.706.4913,3.89,3.89,0,0,1,1.3409,1.3466,3.6348,3.6348,0,0,1,.5175,1.9229,3.6883,3.6883,0,0,1-.5507,1.9648,4.0808,4.0808,0,0,1-1.4776,1.4229,3.9816,3.9816,0,0,1-1.9951.5244A4.1022,4.1022,0,0,1,1148.7207,676.3047Zm3.1914-1.4776a2.1133,2.1133,0,0,0,.8067-.7695,2.1672,2.1672,0,0,0-.01-2.206,2.1944,2.1944,0,0,0-1.8838-1.0577,2.2352,2.2352,0,0,0-1.0869.2793,2.1637,2.1637,0,0,0-.8145.7784,2.1728,2.1728,0,0,0-.0078,2.206,2.1035,2.1035,0,0,0,.8057.7695,2.2563,2.2563,0,0,0,1.1035.2793A2.2232,2.2232,0,0,0,1151.9121,674.8271Z"/><path class="n" d="M1156.7148,670.5225h5.586v1.5957h-5.586Z"/><path class="n" d="M1165.2881,676.1a4.0064,4.0064,0,0,1-1.46-2.1142l1.7657-.73a2.12,2.12,0,0,0,2.121,1.7822,1.7777,1.7777,0,0,0,1.41-.6026,2.33,2.33,0,0,0,.5254-1.5869v-8.42h1.8848V672.78a4.6078,4.6078,0,0,1-.4922,2.207,3.3533,3.3533,0,0,1-1.3584,1.3916,4.295,4.295,0,0,1-4.3965-.2793Z"/><path class="n" d="M1174.8613,676.4893a2.7212,2.7212,0,0,1-1.1367-1.0352,2.869,2.869,0,0,1-.4082-1.5195,2.5421,2.5421,0,0,1,1.01-2.1221,4.0626,4.0626,0,0,1,2.5556-.78,5.9719,5.9719,0,0,1,1.375.1446,4.9675,4.9675,0,0,1,.9678.3134v-.4414a1.6227,1.6227,0,0,0-.5947-1.2988,2.2918,2.2918,0,0,0-1.5274-.5,2.7866,2.7866,0,0,0-1.248.2881,2.4554,2.4554,0,0,0-.9424.7978l-1.3066-1.0009a3.8889,3.8889,0,0,1,1.4941-1.2393,4.6227,4.6227,0,0,1,2.0371-.4414,4.1717,4.1717,0,0,1,2.9024.9248,3.3392,3.3392,0,0,1,1.0185,2.6055v5.3984h-1.833v-1.0351h-.0859a2.9274,2.9274,0,0,1-1.0518.9335,3.1961,3.1961,0,0,1-1.5615.3731A3.6726,3.6726,0,0,1,1174.8613,676.4893Zm3.209-1.502a2.2985,2.2985,0,0,0,.8477-.8662,2.3336,2.3336,0,0,0,.3066-1.1709,3.8521,3.8521,0,0,0-.9082-.3564,4.222,4.222,0,0,0-1.0781-.1358,2.3655,2.3655,0,0,0-1.5449.416,1.3455,1.3455,0,0,0-.4922,1.0781,1.2135,1.2135,0,0,0,.458.9756,1.7939,1.7939,0,0,0,1.1885.3819A2.3533,2.3533,0,0,0,1178.07,674.9873Z"/><path class="n" d="M1183.0947,667.9258h1.7823v1.1367h.0849a2.8568,2.8568,0,0,1,1.1123-1.01,3.2579,3.2579,0,0,1,1.57-.3984,3.0506,3.0506,0,0,1,2.4024.9248,3.6607,3.6607,0,0,1,.8222,2.52v5.4834h-1.8671v-5.2285a1.98,1.98,0,0,0-.5-1.4941,1.9326,1.9326,0,0,0-1.3848-.4747,1.8951,1.8951,0,0,0-1.1192.3477,2.3155,2.3155,0,0,0-.7646.9248,2.8824,2.8824,0,0,0-.2715,1.2393v4.6855h-1.8672Z"/><path class="n" d="M1199.4922,667.501l-1.9,1.375-.9512-1.4424,3.4121-2.4619h1.3067V676.583h-1.8672Z"/></g></g><ellipse class="b" cx="689.8115" cy="539.6825" rx="140.8018" ry="11.3111"/><path class="c" d="M727.2933,342.5574H652.7416A13.4414,13.4414,0,0,0,639.3,355.9988v127.747a13.4414,13.4414,0,0,0,13.4414,13.4414h74.5517a13.4414,13.4414,0,0,0,13.4414-13.4414V355.9988A13.4414,13.4414,0,0,0,727.2933,342.5574Z"/><rect class="g" x="707.6942" y="342.5574" width="19.1635" height="154.6299"/><rect class="o" x="651.5251" y="354.7824" width="20.4852" height="28.0845"/><polygon class="b" points="672.01 366.875 672.01 382.867 651.525 382.867 651.525 375.069 672.01 366.875"/><polygon class="e" points="726.858 342.557 726.858 387.268 707.694 397.824 707.694 342.557 726.858 342.557"/><polygon class="p" points="608.983 426.824 697.041 426.824 700.385 538.663 605.267 538.663 608.983 426.824"/><circle class="g" cx="637.9639" cy="442.0583" r="2.9724"/><circle class="g" cx="666.9452" cy="442.0583" r="2.9724"/><path class="q" d="M666.9452,442.0583v22.2933a14.4907,14.4907,0,0,1-14.4906,14.4907h0a14.4906,14.4906,0,0,1-14.4906-14.4907V442.0583"/><rect class="b" x="703.2076" y="518.3344" width="9.6604" height="20.8071"/><path class="o" d="M716.2715,426.9319c0,1.189-1.6965,2.2153-1.8948,3.3474-.2039,1.1639,1.0365,2.7065.6412,3.7921-.4023,1.105-2.3478,1.4881-2.9291,2.4927-.5867,1.0139.05,2.89-.6995,3.7817-.7512.8942-2.71.5912-3.604,1.3423-.8917.749-.9315,2.731-1.9455,3.3176-1.0045.5811-2.74-.3711-3.8453.0311-1.0857.3952-1.8021,2.244-2.966,2.4479-1.1319.1982-2.4349-1.2915-3.6235-1.2915s-2.4922,1.49-3.6243,1.2913c-1.164-.2039-1.88-2.0528-2.9661-2.4481-1.105-.4023-2.8412.55-3.8457-.0315-1.014-.5867-1.0536-2.5688-1.9454-3.3178-.8942-.7512-2.8527-.4483-3.6039-1.3426-.749-.8918-.1125-2.7677-.6992-3.7816-.5812-1.0045-2.5266-1.3876-2.9288-2.4925-.3952-1.0857.8453-2.6281.6414-3.792-.1981-1.1319-1.8947-2.1579-1.8947-3.3465s1.6965-2.2153,1.8948-3.3475c.2039-1.164-1.0365-2.7065-.6412-3.7921.4023-1.105,2.3478-1.4881,2.9291-2.4927.5867-1.0139-.05-2.89.6995-3.7817.7513-.8943,2.71-.5912,3.6039-1.3423.8917-.749.9315-2.731,1.9455-3.3176,1.0045-.5811,2.74.3711,3.8453-.0311,1.0857-.3952,1.8021-2.244,2.966-2.4479,1.1319-.1982,2.4349,1.2915,3.6235,1.2915s2.4922-1.49,3.6243-1.2913c1.164.2039,1.88,2.0528,2.9661,2.4481,1.105.4023,2.8412-.55,3.8458.0315,1.014.5867,1.0536,2.5688,1.9454,3.3178.8942.7512,2.8527.4483,3.6038,1.3426.7491.8918.1125,2.7677.6993,3.7816.5811,1.0045,2.5266,1.3876,2.9287,2.4925.3952,1.0857-.8452,2.6281-.6414,3.792C714.5751,424.7171,716.2715,425.7432,716.2715,426.9319Z"/><path class="r" d="M688.0056,426.3905a4.2428,4.2428,0,0,1-1.5933-1.5557,4.3219,4.3219,0,0,1,0-4.3159,4.2436,4.2436,0,0,1,1.5933-1.5557,4.7068,4.7068,0,0,1,4.5165,0,4.2544,4.2544,0,0,1,1.5933,1.5557,4.3219,4.3219,0,0,1,0,4.3159,4.253,4.253,0,0,1-1.5933,1.5557,4.7068,4.7068,0,0,1-4.5165,0Zm3.5128-2.3837a2.0531,2.0531,0,0,0,0-2.66,1.7569,1.7569,0,0,0-2.4715.0125,1.98,1.98,0,0,0,0,2.6346,1.7565,1.7565,0,0,0,2.4715.0128Zm-2.4969,11.0151,11.1408-16.6358,1.9824,1.33-11.1409,16.6358Zm9.6232.7528a4.2448,4.2448,0,0,1-1.5938-1.5557,4.3245,4.3245,0,0,1,0-4.3156,4.2473,4.2473,0,0,1,1.5938-1.5558,4.7068,4.7068,0,0,1,4.5165,0,4.2525,4.2525,0,0,1,1.5933,1.5558,4.3245,4.3245,0,0,1,0,4.3156,4.2493,4.2493,0,0,1-1.5933,1.5557,4.4727,4.4727,0,0,1-2.246.5771A4.5189,4.5189,0,0,1,698.6447,435.7747Zm3.5128-2.3837a2.0526,2.0526,0,0,0,0-2.66,1.7575,1.7575,0,0,0-2.472.0125,1.98,1.98,0,0,0,0,2.6346,1.7575,1.7575,0,0,0,2.472.0125Z"/><path class="e" d="M630.7407,513.2739l-1.3162,6.1419L626.68,541.3709h-3.6592l-2.512-20.0965a2.1218,2.1218,0,0,0-2.1054-1.8586h0a2.1213,2.1213,0,0,0-1.5663.6905L602.0224,536.32a15.5215,15.5215,0,0,1-11.4582,5.0514H567.2184a10.0569,10.0569,0,0,1,10.0627-10.0628h.0316a31.8283,31.8283,0,0,0,23.1058-9.9384l23.5172-24.8237,3.9167,4.7869A14.1681,14.1681,0,0,1,630.7407,513.2739Z"/><path class="e" d="M578.7192,531.2745a27.4322,27.4322,0,0,0,13.6595-8.0478c5.9428-6.5553,11.4315-6.5553,11.4315-6.5553l-12.8071,17.3811Z"/><path class="g" d="M623.9358,496.5458h-6.4036s-27.4438,27.4439-27.4438,30.1883c0,1.2578,1.9008.6716,3.96-.3325a26.16,26.16,0,0,0,7.73-5.8226Z"/><path class="e" d="M665.188,513.2739l-1.3162,6.1419-2.7444,21.9551h-3.6592l-2.512-20.0965a2.1218,2.1218,0,0,0-2.1054-1.8586h0a2.1211,2.1211,0,0,0-1.5663.6905L636.47,536.32a15.5215,15.5215,0,0,1-11.4582,5.0514H601.6656a10.0571,10.0571,0,0,1,10.0628-10.0628h.0316a31.8285,31.8285,0,0,0,23.1058-9.9384l23.5172-24.8237L662.3,501.333A14.1684,14.1684,0,0,1,665.188,513.2739Z"/><path class="e" d="M613.1664,531.2745a27.4322,27.4322,0,0,0,13.66-8.0478c5.9428-6.5553,11.4315-6.5553,11.4315-6.5553L625.45,534.0525Z"/><path class="g" d="M658.3831,496.5458H651.98s-27.4438,27.4439-27.4438,30.1883c0,1.2578,1.9008.6716,3.96-.3325a26.16,26.16,0,0,0,7.73-5.8226Z"/><rect class="s" x="693.7805" y="463.3589" width="98.1269" height="65.5386"/><rect class="o" x="700.2982" y="469.1523" width="85.0916" height="52.8654"/><rect class="t" x="677.4863" y="540.1224" width="130.7152" height="5.7935"/><polygon class="c" points="808.201 540.122 677.486 540.122 693.781 528.535 791.907 528.535 808.201 540.122"/><circle class="u" cx="743.025" cy="466.2556" r="1.0863"/><ellipse class="b" cx="453.47" cy="547.108" rx="71.4834" ry="9.6989"/><path class="p" d="M545.121,366.1171c.0277,18.7114-28.5558,31.7776-28.5558,31.7776h-.0825s-2.5967-1.1782-6.2283-3.3374a75.5562,75.5562,0,0,1-9.8606-6.9276c-6.5217-5.4719-12.5483-12.8469-12.561-21.4278a15.7438,15.7438,0,0,1,15.72-15.7673c.0511,0,.1022,0,.1533.0014a15.7231,15.7231,0,0,1,12.7155,6.6381h.0825a15.7446,15.7446,0,0,1,28.6164,9.043Z"/><circle class="v" cx="504.0341" cy="366.9974" r="9.2072" transform="translate(61.0382 805.7366) rotate(-80.7825)"/><circle class="o" cx="534.2371" cy="361.7239" r="2.9701"/><polygon class="p" points="513.467 400.286 516.478 394.348 519.488 400.286 513.467 400.286"/><rect class="u" x="515.8445" y="400.0753" width="1.1246" height="76.9007"/><path class="c" d="M420.1623,393.9916V539.7568a5.0806,5.0806,0,0,1-3.45,4.6078c-1.2323.3354-2.4787.6144-3.7286.84-.36.0636-.72.1236-1.084.18-.2189.0353-.4378.0671-.66.0953a44.4426,44.4426,0,0,1-17.7744-1.1158,5.0709,5.0709,0,0,1-3.45-4.6078V393.9916Z"/><polygon class="u" points="414.511 409.69 414.132 410.069 398.055 393.992 398.813 393.992 414.511 409.69"/><polygon class="u" points="414.511 430.073 414.132 430.453 390.017 406.337 390.017 405.579 414.511 430.073"/><polygon class="u" points="414.511 449.021 414.132 449.4 390.017 425.285 390.017 424.527 414.511 449.021"/><polygon class="u" points="414.511 469.404 414.132 469.783 390.017 445.668 390.017 444.91 414.511 469.404"/><polygon class="u" points="414.511 488.352 414.132 488.731 390.017 464.616 390.017 463.858 414.511 488.352"/><polygon class="u" points="414.511 508.735 414.132 509.114 390.017 484.999 390.017 484.241 414.511 508.735"/><polygon class="u" points="414.511 527.683 414.132 528.062 390.017 503.947 390.017 503.189 414.511 527.683"/><path class="u" d="M411.9,545.3851c-.2189.0352-.4378.067-.66.0952l-21.2241-21.15v-.7592Z"/><path class="u" d="M420.1623,393.9916V539.7568a5.0806,5.0806,0,0,1-3.45,4.6078c-1.2323.3354-2.4787.6144-3.7286.84V393.9916Z"/><rect class="d" x="402.3613" y="420.5888" width="17.7994" height="43.3501"/><rect class="r" x="397.7953" y="444.8202" width="12.2528" height="8.9373" transform="translate(-199.3893 417.2094) rotate(-45)"/><rect class="b" x="412.9835" y="420.5888" width="7.1772" height="43.3501"/><path class="r" d="M416.2217,388.1586H393.8949a3.9086,3.9086,0,0,0-3.9086,3.9087V393.9H420.13v-1.8331A3.9087,3.9087,0,0,0,416.2217,388.1586Z"/><path class="b" d="M412.7137,384.6277H397.403a2.4665,2.4665,0,0,0-2.4665,2.4665v1.1567H415.18v-1.1567A2.4665,2.4665,0,0,0,412.7137,384.6277Z"/><rect class="u" x="395.0542" y="387.0994" width="20.126" height="1.0593"/><polygon class="f" points="470.979 476.976 470.979 551.353 412.593 549.234 412.593 476.976 470.979 476.976"/><polygon class="j" points="501.877 476.976 501.877 549.235 489.752 550.069 483.976 550.464 471.028 551.354 471.028 476.976 501.877 476.976"/><polygon class="i" points="470.971 476.976 463.849 508.936 412.593 508.936 412.593 476.976 470.971 476.976"/><polygon class="f" points="460.195 499.557 401.817 499.557 412.593 476.976 470.971 476.976 460.195 499.557"/><polygon class="i" points="501.877 476.976 501.877 508.936 478.508 508.936 471.029 477.199 470.971 476.976 501.877 476.976"/><polygon class="f" points="489.752 508.938 489.752 550.069 483.976 550.464 483.976 508.938 489.752 508.938"/><rect class="j" x="483.9774" y="499.5568" width="5.7754" height="9.3797"/><polygon class="f" points="481.747 499.557 512.653 499.557 501.877 476.976 470.971 476.976 481.747 499.557"/><ellipse class="b" cx="1194.9653" cy="544.2314" rx="49.1266" ry="6.2083"/><path class="b" d="M1187.556,489.22v-5.8219h-34.0586V489.22c0,14.5,8.9385,20.2191,13.8637,22.27a.3216.3216,0,0,1,0,.6017c-4.9252,2.051-13.8637,7.77-13.8637,22.27v5.822h34.0586v-5.822c0-14.5-8.9384-20.2191-13.8635-22.27a.3216.3216,0,0,1,0-.6017C1178.6176,509.4392,1187.556,503.72,1187.556,489.22Z"/><path class="r" d="M1188.9707,479.68h-36.8878a1.1052,1.1052,0,0,0-1.1052,1.1052v1.5078a1.1051,1.1051,0,0,0,1.1052,1.1051h36.8878a1.1051,1.1051,0,0,0,1.1051-1.1051v-1.5078A1.1051,1.1051,0,0,0,1188.9707,479.68Z"/><path class="r" d="M1188.9707,540.1839h-36.8878a1.1052,1.1052,0,0,0-1.1052,1.1052v1.5078a1.1051,1.1051,0,0,0,1.1052,1.1051h36.8878a1.1051,1.1051,0,0,0,1.1051-1.1052V541.289A1.1051,1.1051,0,0,0,1188.9707,540.1839Z"/><path class="r" d="M1188.9708,542.7754h-36.888a1.1051,1.1051,0,0,1-1.1051-1.1051v1.1266a1.105,1.105,0,0,0,1.1051,1.105h36.888a1.1051,1.1051,0,0,0,1.105-1.105V541.67A1.1051,1.1051,0,0,1,1188.9708,542.7754Z"/><path class="d" d="M1155.6781,491.9161a.4876.4876,0,0,0-.6366.5132,23.4926,23.4926,0,0,0,2.325,8.2381,19.7867,19.7867,0,0,0,5.43,6.6292,9.5947,9.5947,0,0,0,15.3637.0762,19.7987,19.7987,0,0,0,5.4907-6.6339,23.4583,23.4583,0,0,0,2.3614-8.31.4878.4878,0,0,0-.6367-.5134l-10.4787,3.4362a14.026,14.026,0,0,1-8.74,0Z"/><polygon class="d" points="1154.879 540.184 1170.529 526.456 1186.171 540.184 1154.879 540.184"/><rect class="d" x="1169.9768" y="509.894" width="1.1051" height="18.4123"/><rect class="p" x="1180.3057" y="499.8399" width="35.9481" height="19.2862"/><polygon class="p" points="1180.306 523.364 1216.254 523.364 1216.254 545.63 1200.508 545.06 1195.484 544.877 1180.306 544.326 1180.306 523.364"/><polygon class="v" points="1235.276 499.84 1235.276 544.328 1227.811 544.841 1224.255 545.084 1216.283 545.632 1216.283 499.84 1235.276 499.84"/><polygon class="b" points="1227.811 499.892 1227.811 544.841 1224.255 545.084 1224.255 499.892 1227.811 499.892"/><polygon class="d" points="1200.508 499.84 1200.508 545.06 1195.484 544.877 1195.484 499.84 1200.508 499.84"/><rect class="d" x="1180.3057" y="519.1262" width="35.9481" height="4.238"/><rect class="b" x="1180.2958" y="519.1262" width="0.0098" height="4.238"/><rect class="b" x="1216.2538" y="519.1262" width="19.1362" height="4.238"/><ellipse class="w" cx="1203.5602" cy="494.8707" rx="3.5859" ry="7.1717" transform="translate(-77.806 721.9275) rotate(-32.3996)"/><ellipse class="w" cx="1213.2839" cy="494.5842" rx="7.1717" ry="3.5859" transform="translate(145.5884 1253.9904) rotate(-57.6004)"/><line class="x" x1="22.2445" y1="590.1534" x2="308.6155" y2="590.1534"/><circle class="r" cx="25.598" cy="590.1534" r="11.3495" transform="translate(-6.0197 0.2919) rotate(-0.5846)"/><circle class="r" cx="306.9876" cy="590.1534" r="11.3495"/><line class="x" x1="336.0599" y1="590.1534" x2="777.5981" y2="590.1534"/><line class="x" x1="809.0339" y1="590.1534" x2="1013.0873" y2="590.1534"/><line class="x" x1="1042.4163" y1="590.1534" x2="1254.5635" y2="590.1534"/><circle class="r" cx="340.5623" cy="590.1534" r="11.3495"/><circle class="r" cx="776.1174" cy="590.1534" r="11.3495"/><circle class="r" cx="810.0438" cy="590.1534" r="11.3495"/><circle class="r" cx="1012.1055" cy="590.1534" r="11.3495"/><circle class="r" cx="1046.5396" cy="590.1534" r="11.3495"/><circle class="r" cx="1255.6417" cy="590.1534" r="11.3495"/><ellipse class="b" cx="111.5934" cy="549.3614" rx="37.4212" ry="4.2173"/><path class="u" d="M108.2677,550.6645h-31.44a14.4159,14.4159,0,0,1-14.4159-14.4159v-6.7608h60.2722v6.7608A14.4157,14.4157,0,0,1,108.2677,550.6645Z"/><ellipse class="d" cx="92.5474" cy="529.4878" rx="30.1361" ry="5.4299"/><path class="f" d="M97.6926,522.1706a5.1452,5.1452,0,0,1-10.29,0c0-2.8416,2.3036-12.4955,5.1452-12.4955S97.6926,519.329,97.6926,522.1706Z"/><ellipse class="y" cx="919.8906" cy="483.4778" rx="2.6055" ry="10.9539" transform="translate(-76.1964 187.2342) rotate(-11.1627)"/><ellipse class="z" cx="925.9423" cy="482.2651" rx="9.8806" ry="2.7578" transform="translate(301.9024 1319.2376) rotate(-80.8043)"/><rect class="aa" x="987.4451" y="417.2287" width="4.407" height="13.2209"/><path class="c" d="M960.5526,504.5526h-16.38v-140.78a5.5752,5.5752,0,0,1,5.5751-5.5751h5.2293a5.5752,5.5752,0,0,1,5.5751,5.5751v140.78Z"/><path class="u" d="M984.3167,365.3625c-.0895.3417-.1768.6823-.2628,1.024a132.6721,132.6721,0,0,0-4.0513,32.5363V504.8994H969.3972V398.9229a132.6833,132.6833,0,0,1,4.0465-32.5163.1639.1639,0,0,1,.0059-.0259.3168.3168,0,0,0,.0082-.0342c.2121-.7542,2.444-8.37,6.62-8.9463C983.89,357.7431,985.4644,360.629,984.3167,365.3625Z"/><path class="c" d="M985.75,365.4686c-.09.3417-.1768.6823-.2628,1.024a132.672,132.672,0,0,0-4.0512,32.5363V505.0055H970.83V399.029a132.6833,132.6833,0,0,1,4.0465-32.5163.1638.1638,0,0,1,.006-.0259.339.339,0,0,0,.0081-.0342c.2121-.7542,2.444-8.37,6.62-8.9463C985.3232,357.8492,986.8975,360.7351,985.75,365.4686Z"/><rect class="b" x="993.2427" y="433.3245" width="2.0448" height="70.4286"/><path class="g" d="M996.4557,418.0541a2.131,2.131,0,0,0,1.521,2.0417.8592.8592,0,0,1,.609.8256h0a.8591.8591,0,0,1-.609.8256,2.1308,2.1308,0,0,0,0,4.0834.859.859,0,0,1,.609.8255h0a.86.86,0,0,1-.609.8258,2.1307,2.1307,0,0,0-.0277,4.0748.905.905,0,0,1,.6367.8631h0a.905.905,0,0,1-.9049.9049h-5.3489a1.7321,1.7321,0,0,1-1.732-1.732V416.517a1.9035,1.9035,0,0,1,1.9035-1.9035h5.3829a.7.7,0,0,1,.6995.7h0a.7058.7058,0,0,1-.5369.68A2.13,2.13,0,0,0,996.4557,418.0541Z"/><polygon class="u" points="995.287 433.324 995.287 437.245 993.243 439.29 993.243 433.324 995.287 433.324"/><path class="ab" d="M972.9225,429.66V410.4382a8.2326,8.2326,0,0,1,8.2325-8.2326h7.7219a8.2326,8.2326,0,0,1,8.2326,8.2326V429.66a8.2327,8.2327,0,0,1-8.2326,8.2326H981.155A8.2325,8.2325,0,0,1,972.9225,429.66Z"/><rect class="ab" x="987.612" y="416.8961" width="5.4881" height="12.9719"/><rect class="u" x="1033.1545" y="292.2603" width="1.1017" height="64.7202"/><path class="ac" d="M1034.3047,356.4305l1.2993.0058a1.3851,1.3851,0,0,1,1.3789,1.3913l-.0183,4.097a1.385,1.385,0,0,1-1.3914,1.3789l-1.2992-.0058a1.3852,1.3852,0,0,1-1.3789-1.3913l.0184-4.097A1.385,1.385,0,0,1,1034.3047,356.4305Z"/><path class="f" d="M1036.1073,362.1765l-2.5984-.0116a2.77,2.77,0,0,0-2.7826,2.7579l-.0117,2.5984a2.77,2.77,0,0,0,2.7579,2.7826l2.5984.0116a2.77,2.77,0,0,0,2.7826-2.7579l.0117-2.5984A2.77,2.77,0,0,0,1036.1073,362.1765Z"/><path class="k" d="M1049.9766,382.8405c0,.0432,0,.089-.0032.1322a14.7659,14.7659,0,0,1-.1381,1.8765,15.2607,15.2607,0,0,1-30.38-2.0508l0-.0941a15.2606,15.2606,0,1,1,30.5209.1362Z"/><path class="i" d="M1032.4066,366.7382l-.3248-.0014a.3463.3463,0,0,1-.3447-.3478l.0128-2.8682a.3463.3463,0,0,1,.3479-.3448l.3247.0015a.3462.3462,0,0,1,.3447.3478l-.0127,2.8682A.3462.3462,0,0,1,1032.4066,366.7382Z"/><path class="i" d="M1034.1023,366.7458l-.3248-.0014a.3464.3464,0,0,1-.3448-.3478l.0129-2.8682a.3462.3462,0,0,1,.3477-.3448l.3249.0015a.3464.3464,0,0,1,.3447.3478l-.0128,2.8682A.3464.3464,0,0,1,1034.1023,366.7458Z"/><path class="i" d="M1035.7979,366.7534l-.3249-.0014a.3464.3464,0,0,1-.3447-.3478l.0128-2.8682a.3464.3464,0,0,1,.3478-.3448l.3248.0015a.3462.3462,0,0,1,.3447.3478l-.0128,2.8682A.3462.3462,0,0,1,1035.7979,366.7534Z"/><path class="i" d="M1037.4934,366.7609l-.3247-.0014a.3462.3462,0,0,1-.3447-.3478l.0127-2.8682a.3463.3463,0,0,1,.3479-.3448l.3248.0015a.3463.3463,0,0,1,.3447.3478l-.0128,2.8682A.3462.3462,0,0,1,1037.4934,366.7609Z"/><circle class="d" cx="1041.8683" cy="375.9369" r="2.2891"/><path class="d" d="M1049.9734,382.9727a14.7659,14.7659,0,0,1-.1381,1.8765l-1.8773,1.7746a.6361.6361,0,0,1-.8774-.0039l-2.7505-2.6473-2.7738,2.6227a.6363.6363,0,0,1-.8776-.0039l-2.7529-2.6473-2.7738,2.6226a.6362.6362,0,0,1-.8776-.004l-2.7478-2.6473-2.7739,2.6227a.6363.6363,0,0,1-.8775-.0039l-2.75-2.6473-2.7739,2.6227a.6362.6362,0,0,1-.8776-.0039l-1.8994-1.83a15.2352,15.2352,0,0,1-.1187-1.8775l2.4641,2.3713,2.7714-2.6228a.6393.6393,0,0,1,.88.004l2.7478,2.6473,2.7739-2.6226a.6363.6363,0,0,1,.8776.0039l2.75,2.6448,2.7738-2.62a.6362.6362,0,0,1,.8775.0039l2.75,2.6473,2.7739-2.6226a.6362.6362,0,0,1,.8775.0039l2.7529,2.6473Z"/><rect class="u" x="1072.7617" y="336.864" width="1.1017" height="63.7289"/><path class="ac" d="M1073.5939,400.0532l1.2749.0057a1.3591,1.3591,0,0,1,1.353,1.3652l-.0179,4.02a1.3593,1.3593,0,0,1-1.3653,1.3531l-1.2748-.0057a1.3592,1.3592,0,0,1-1.3531-1.3652l.0179-4.02A1.3594,1.3594,0,0,1,1073.5939,400.0532Z"/><path class="f" d="M1075.3627,405.6916l-2.55-.0114a2.7182,2.7182,0,0,0-2.73,2.7062l-.0115,2.55a2.7183,2.7183,0,0,0,2.7062,2.73l2.55.0114a2.7183,2.7183,0,0,0,2.73-2.7062l.0114-2.55A2.7182,2.7182,0,0,0,1075.3627,405.6916Z"/><path class="p" d="M1088.9719,425.9682c0,.0424,0,.0873-.003.13a14.4921,14.4921,0,0,1-.1355,1.8413,14.9748,14.9748,0,0,1-29.8107-2.0124l0-.0923a14.9745,14.9745,0,0,1,29.9488.1336Z"/><path class="i" d="M1071.7313,410.1678l-.3187-.0014a.34.34,0,0,1-.3383-.3413l.0126-2.8145a.34.34,0,0,1,.3413-.3383l.3187.0014a.34.34,0,0,1,.3383.3413l-.0126,2.8144A.34.34,0,0,1,1071.7313,410.1678Z"/><path class="i" d="M1073.3951,410.1752l-.3187-.0014a.34.34,0,0,1-.3382-.3413l.0125-2.8145a.34.34,0,0,1,.3413-.3383l.3188.0014a.34.34,0,0,1,.3382.3413l-.0125,2.8145A.34.34,0,0,1,1073.3951,410.1752Z"/><path class="i" d="M1075.059,410.1826l-.3188-.0014a.34.34,0,0,1-.3382-.3413l.0126-2.8145a.34.34,0,0,1,.3413-.3383l.3187.0014a.34.34,0,0,1,.3382.3413l-.0125,2.8145A.34.34,0,0,1,1075.059,410.1826Z"/><path class="i" d="M1076.7228,410.19l-.3187-.0014a.34.34,0,0,1-.3383-.3413l.0126-2.8144a.34.34,0,0,1,.3413-.3383l.3187.0014a.34.34,0,0,1,.3383.3413l-.0126,2.8144A.34.34,0,0,1,1076.7228,410.19Z"/><circle class="d" cx="1081.0156" cy="419.194" r="2.2462"/><path class="d" d="M1088.9689,426.0979a14.4921,14.4921,0,0,1-.1355,1.8413l-1.8422,1.7413a.6245.6245,0,0,1-.8611-.0038l-2.6988-2.5977-2.7218,2.5735a.6244.6244,0,0,1-.8611-.0038l-2.7013-2.5977-2.7219,2.5735a.6245.6245,0,0,1-.8611-.0038l-2.6963-2.5977-2.7219,2.5735a.6242.6242,0,0,1-.861-.0038l-2.6988-2.5977-2.722,2.5735a.6243.6243,0,0,1-.861-.0039l-1.8638-1.7953a14.9427,14.9427,0,0,1-.1166-1.8424l2.418,2.3269,2.7195-2.5734a.6275.6275,0,0,1,.8635.0038l2.6963,2.5977,2.7219-2.5735a.6244.6244,0,0,1,.8611.0038l2.6987,2.5952,2.7219-2.571a.6245.6245,0,0,1,.8611.0038l2.6987,2.5977,2.722-2.5735a.6245.6245,0,0,1,.8611.0038l2.7012,2.5977Z"/><ellipse class="b" cx="987.5925" cy="538.8751" rx="127.2811" ry="13.5513"/><polygon class="ad" points="885.423 495.004 882.097 536.248 928.662 544.896 931.989 489.017 885.423 495.004"/><polygon class="ae" points="931.186 489.15 927.955 545.2 953.896 544.848 953.137 488.852 931.186 489.15"/><polygon class="af" points="883.791 511.764 883.791 516.421 901.086 516.421 898.425 540.489 906.408 540.489 906.408 517.752 928.36 517.086 953.639 517.086 953.639 511.764 929.691 511.764 907.073 511.764 909.734 491.808 904.412 491.808 901.086 511.764 883.791 511.764"/><polygon class="ag" points="956.513 472.387 953.852 546.227 974.474 549.553 975.804 469.061 956.513 472.387"/><polygon class="ah" points="974.807 549.553 1006.737 545.561 1006.072 476.378 975.472 469.061 974.807 549.553"/><polygon class="ai" points="975.804 550.024 984.452 548.693 1005.074 490.819 1005.739 478.845 975.804 550.024"/><polygon class="aj" points="975.804 470.724 955.182 502.654 955.182 492.676 970.482 470.059 975.804 470.724"/><polygon class="ak" points="955.515 492.344 954.185 504.318 975.472 469.726 969.485 470.391 955.515 492.344"/><polygon class="al" points="974.807 548.555 982.124 548.555 1006.072 489.35 1006.072 475.38 974.807 548.555"/><ellipse class="am" cx="1056.7509" cy="485.6365" rx="10.9885" ry="4.657" transform="translate(263.3126 1335.9429) rotate(-71.6629)"/><ellipse class="an" cx="1047.1653" cy="485.7357" rx="3.3685" ry="11.1057" transform="translate(-90.4023 289.6889) rotate(-15.1064)"/><polygon class="n" points="1019.377 494.007 1055.631 490.015 1057.627 539.907 1019.377 536.248 1019.377 494.007"/><polygon class="ao" points="1055.371 490.495 1058.197 540.977 1094.177 533.778 1089.091 492.714 1055.371 490.495"/><polygon class="ap" points="1036.34 539.242 1043.657 539.907 1041.661 491.678 1035.674 491.678 1036.34 539.242"/><polygon class="ap" points="1071.264 492.011 1075.255 492.676 1080.577 538.244 1073.26 538.576 1071.264 492.011"/><polygon class="aq" points="1006.072 513.298 1006.737 542.568 1013.057 542.901 1012.724 512.965 1006.072 513.298"/><polygon class="ar" points="1011.726 543.233 1027.026 541.237 1026.361 512.633 1012.392 512.633 1011.726 543.233"/><polygon class="as" points="1006.072 523.609 1006.072 528.266 1012.392 528.598 1027.359 527.933 1028.024 523.609 1013.057 524.94 1006.072 523.609"/><g class="at"><path class="c" d="M1028.652,452.52V431.507a.7972.7972,0,1,0-1.5944,0V452.52a.7972.7972,0,1,0,1.5944,0Z"/><path class="c" d="M1031.239,432.8194a.7971.7971,0,0,0-1.1273,0l-2.2568,2.2568-2.2569-2.2568a.7972.7972,0,1,0-1.1273,1.1274l2.79,2.79a.878.878,0,0,0,1.1892,0l2.79-2.79A.7971.7971,0,0,0,1031.239,432.8194Z"/><path class="c" d="M1024.4706,451.2075a.7972.7972,0,0,0,1.1274,0l2.2569-2.2568,2.2568,2.2568a.7972.7972,0,0,0,1.1273-1.1274l-2.79-2.79a.8782.8782,0,0,0-1.1894,0l-2.7895,2.79A.7972.7972,0,0,0,1024.4706,451.2075Z"/><path class="c" d="M1037.3523,446.5763,1019.1545,436.07a.7972.7972,0,0,0-.7972,1.3808l18.1978,10.5065a.7972.7972,0,0,0,.7972-1.3808Z"/><path class="c" d="M1021.5847,434.4856a.7971.7971,0,0,0-.5637.9763l.826,3.0829-3.0829.826a.7972.7972,0,0,0,.4126,1.54l3.8106-1.0211a.8781.8781,0,0,0,.5947-1.03l-1.0211-3.8106A.7971.7971,0,0,0,1021.5847,434.4856Z"/><path class="c" d="M1034.125,449.5413a.7972.7972,0,0,0,.5637-.9763l-.826-3.0829,3.0829-.826a.7972.7972,0,0,0-.4128-1.54l-3.8105,1.021a.8781.8781,0,0,0-.5947,1.03l1.0211,3.8106A.7971.7971,0,0,0,1034.125,449.5413Z"/><path class="c" d="M1036.5552,436.07l-18.1978,10.5065a.7972.7972,0,0,0,.7971,1.3808l18.1978-10.5065a.7972.7972,0,0,0-.7971-1.3808Z"/><path class="c" d="M1018.2005,443.68a.797.797,0,0,0,.5637.9763l3.0829.826-.826,3.0828a.7972.7972,0,0,0,1.54.4126l1.0211-3.8106a.8781.8781,0,0,0-.5947-1.03l-3.8106-1.021A.7975.7975,0,0,0,1018.2005,443.68Z"/><path class="c" d="M1037.5092,440.3473a.7971.7971,0,0,0-.5636-.9763l-3.0829-.826.826-3.0829a.7972.7972,0,1,0-1.54-.4126l-1.0211,3.8106a.8781.8781,0,0,0,.5947,1.03l3.8105,1.021A.7974.7974,0,0,0,1037.5092,440.3473Z"/></g><g class="at"><path class="c" d="M880.2394,405.7376V368.6638a1.4065,1.4065,0,0,0-2.813,0v37.0738a1.4065,1.4065,0,1,0,2.813,0Z"/><path class="c" d="M884.8038,370.98a1.4065,1.4065,0,0,0-1.9891,0l-3.9818,3.9818-3.9818-3.9818a1.4065,1.4065,0,0,0-1.9891,1.9891l4.9217,4.9217a1.5493,1.5493,0,0,0,2.0983,0l4.9216-4.9217A1.4065,1.4065,0,0,0,884.8038,370.98Z"/><path class="c" d="M872.8621,403.4221a1.4065,1.4065,0,0,0,1.9891,0l3.9818-3.9818,3.9818,3.9818a1.4065,1.4065,0,0,0,1.9891-1.9891l-4.9216-4.9217a1.5492,1.5492,0,0,0-2.0982,0l-4.9217,4.9217A1.406,1.406,0,0,0,872.8621,403.4221Z"/><path class="c" d="M895.59,395.2512l-32.1068-18.5369a1.4065,1.4065,0,1,0-1.4066,2.4361l32.1068,18.5369a1.4065,1.4065,0,0,0,1.4066-2.4361Z"/><path class="c" d="M867.77,373.9192a1.4064,1.4064,0,0,0-.9945,1.7226l1.4574,5.4392-5.4391,1.4574a1.4065,1.4065,0,1,0,.728,2.7171l6.7231-1.8014a1.5492,1.5492,0,0,0,1.0492-1.8172l-1.8015-6.7231A1.4065,1.4065,0,0,0,867.77,373.9192Z"/><path class="c" d="M889.8955,400.4823a1.4066,1.4066,0,0,0,.9946-1.7226l-1.4575-5.4392,5.4391-1.4574a1.4065,1.4065,0,1,0-.728-2.7171l-6.723,1.8015a1.5492,1.5492,0,0,0-1.0492,1.8172l1.8015,6.7232A1.4063,1.4063,0,0,0,889.8955,400.4823Z"/><path class="c" d="M894.183,376.7143l-32.1068,18.5369a1.4065,1.4065,0,0,0,1.4065,2.4361L895.59,379.15a1.4065,1.4065,0,0,0-1.4065-2.4361Z"/><path class="c" d="M861.7994,390.1405a1.4065,1.4065,0,0,0,.9946,1.7226l5.4391,1.4574-1.4574,5.4392a1.4065,1.4065,0,1,0,2.7171.7281l1.8015-6.7232a1.5492,1.5492,0,0,0-1.0492-1.8172l-6.7231-1.8014A1.4065,1.4065,0,0,0,861.7994,390.1405Z"/><path class="c" d="M895.8663,384.261a1.4065,1.4065,0,0,0-.9945-1.7226l-5.4392-1.4574,1.4575-5.4392a1.4065,1.4065,0,0,0-2.7172-.7281l-1.8016,6.7231a1.5494,1.5494,0,0,0,1.0492,1.8173l6.7231,1.8014A1.4064,1.4064,0,0,0,895.8663,384.261Z"/></g><g class="at"><path class="c" d="M920.3845,327.2375v-25.134a.9536.9536,0,0,0-1.9071,0v25.134a.9536.9536,0,0,0,1.9071,0Z"/><path class="c" d="M923.4789,303.6733a.9534.9534,0,0,0-1.3484,0l-2.6995,2.6994-2.6994-2.6994a.9535.9535,0,0,0-1.3485,1.3485l3.3366,3.3367a1.05,1.05,0,0,0,1.4225,0l3.3366-3.3367A.9534.9534,0,0,0,923.4789,303.6733Z"/><path class="c" d="M915.3831,325.6676a.9535.9535,0,0,0,1.3485,0l2.6994-2.6994,2.7,2.6994a.9535.9535,0,1,0,1.3483-1.3485l-3.3366-3.3366a1.05,1.05,0,0,0-1.4225,0l-3.3366,3.3366A.9534.9534,0,0,0,915.3831,325.6676Z"/><path class="c" d="M930.7911,320.1282l-21.7667-12.567a.9536.9536,0,1,0-.9537,1.6516l21.7668,12.567a.9536.9536,0,0,0,.9536-1.6516Z"/><path class="c" d="M911.9312,305.6663a.9536.9536,0,0,0-.6743,1.1678l.988,3.6875-3.6875.988a.9535.9535,0,0,0,.4936,1.842l4.5579-1.2214a1.05,1.05,0,0,0,.7112-1.2319l-1.2213-4.5581A.9532.9532,0,0,0,911.9312,305.6663Z"/><path class="c" d="M926.9308,323.6746a.9536.9536,0,0,0,.6743-1.1678l-.9881-3.6875,3.6875-.988a.9535.9535,0,0,0-.4935-1.8421l-4.5579,1.2213a1.0506,1.0506,0,0,0-.7114,1.232L925.7631,323A.9534.9534,0,0,0,926.9308,323.6746Z"/><path class="c" d="M929.8376,307.5611l-21.7667,12.567a.9536.9536,0,0,0,.9536,1.6516l21.7667-12.567a.9536.9536,0,0,0-.9536-1.6516Z"/><path class="c" d="M907.8832,316.6634a.9535.9535,0,0,0,.6743,1.1678l3.6875.9881-.9881,3.6875A.9535.9535,0,0,0,913.099,323l1.2213-4.558a1.05,1.05,0,0,0-.7112-1.232l-4.558-1.2213A.9538.9538,0,0,0,907.8832,316.6634Z"/><path class="c" d="M930.9788,312.6775a.9533.9533,0,0,0-.6743-1.1678l-3.6874-.988.988-3.6875a.9535.9535,0,0,0-1.8421-.4935l-1.2214,4.558a1.05,1.05,0,0,0,.7113,1.2319l4.558,1.2213A.9539.9539,0,0,0,930.9788,312.6775Z"/></g><g class="at"><path class="c" d="M841.5646,316.3424V295.33a.7972.7972,0,1,0-1.5944,0v21.0129a.7972.7972,0,0,0,1.5944,0Z"/><path class="c" d="M844.1517,296.6419a.7972.7972,0,0,0-1.1274,0l-2.2568,2.2568-2.2568-2.2568a.7972.7972,0,1,0-1.1273,1.1274l2.79,2.79a.8782.8782,0,0,0,1.1894,0l2.79-2.79A.7975.7975,0,0,0,844.1517,296.6419Z"/><path class="c" d="M837.3832,315.03a.7972.7972,0,0,0,1.1274,0l2.2567-2.2568,2.2568,2.2568a.7972.7972,0,0,0,1.1274-1.1274l-2.79-2.79a.8783.8783,0,0,0-1.1895,0l-2.79,2.79A.7975.7975,0,0,0,837.3832,315.03Z"/><path class="c" d="M850.2649,310.3988l-18.1978-10.5065a.7972.7972,0,0,0-.7973,1.3808L849.4677,311.78a.7972.7972,0,0,0,.7972-1.3808Z"/><path class="c" d="M834.4973,298.3081a.7971.7971,0,0,0-.5637.9763l.826,3.0829-3.0829.826a.7972.7972,0,0,0,.4126,1.54l3.8106-1.0211a.8781.8781,0,0,0,.5947-1.03l-1.0212-3.8106A.7968.7968,0,0,0,834.4973,298.3081Z"/><path class="c" d="M847.0376,313.3637a.7972.7972,0,0,0,.5637-.9763l-.8261-3.0829,3.0829-.826a.7971.7971,0,1,0-.4127-1.54l-3.8106,1.021a.8781.8781,0,0,0-.5946,1.03l1.021,3.8106A.7972.7972,0,0,0,847.0376,313.3637Z"/><path class="c" d="M849.4677,299.8923,831.27,310.3988a.7972.7972,0,0,0,.7973,1.3808l18.1978-10.5065a.7973.7973,0,1,0-.7974-1.3808Z"/><path class="c" d="M831.1131,307.5021a.797.797,0,0,0,.5637.9763l3.0829.826-.826,3.0829a.7972.7972,0,0,0,1.54.4126l1.0211-3.8106a.8779.8779,0,0,0-.5947-1.03l-3.8106-1.021A.7975.7975,0,0,0,831.1131,307.5021Z"/><path class="c" d="M850.4218,304.17a.797.797,0,0,0-.5637-.9763l-3.0828-.826.826-3.0829a.7972.7972,0,0,0-1.54-.4126l-1.0211,3.8107a.8781.8781,0,0,0,.5946,1.03l3.8106,1.021A.7975.7975,0,0,0,850.4218,304.17Z"/></g><g class="at"><path class="c" d="M892.7137,240.88V218.047a.8663.8663,0,0,0-1.7325,0V240.88a.8663.8663,0,0,0,1.7325,0Z"/><path class="c" d="M895.5248,219.4732a.8662.8662,0,0,0-1.225,0l-2.4523,2.4523-2.4522-2.4523a.8662.8662,0,1,0-1.225,1.2251l3.0312,3.0312a.9541.9541,0,0,0,1.2923,0l3.0312-3.0312A.8663.8663,0,0,0,895.5248,219.4732Z"/><path class="c" d="M888.17,239.4542a.8662.8662,0,0,0,1.225,0l2.4523-2.4523,2.4522,2.4523a.8662.8662,0,1,0,1.225-1.2251l-3.0312-3.0312a.9542.9542,0,0,0-1.2924,0l-3.0311,3.0312A.8665.8665,0,0,0,888.17,239.4542Z"/><path class="c" d="M902.1677,234.4218l-19.7741-11.4166a.8663.8663,0,0,0-.8663,1.5l19.7742,11.4166a.8662.8662,0,0,0,.8662-1.5Z"/><path class="c" d="M885.0342,221.2838a.8661.8661,0,0,0-.6125,1.0609l.8976,3.35-3.35.8976a.8662.8662,0,1,0,.4484,1.6734l4.1407-1.1095a.954.954,0,0,0,.6461-1.1192l-1.11-4.1407A.8661.8661,0,0,0,885.0342,221.2838Z"/><path class="c" d="M898.6608,237.6436a.8661.8661,0,0,0,.6125-1.0609l-.8976-3.35,3.35-.8976a.8662.8662,0,1,0-.4484-1.6734l-4.1407,1.1095a.954.954,0,0,0-.6461,1.1192l1.11,4.1407A.866.866,0,0,0,898.6608,237.6436Z"/><path class="c" d="M901.3015,223.0052l-19.7742,11.4166a.8663.8663,0,0,0,.8663,1.5l19.7741-11.4166a.8662.8662,0,0,0-.8662-1.5Z"/><path class="c" d="M881.3568,231.2743a.8662.8662,0,0,0,.6125,1.0609l3.35.8976-.8976,3.35a.8662.8662,0,1,0,1.6734.4484l1.11-4.1407a.9541.9541,0,0,0-.6461-1.1192l-4.1407-1.1095A.8663.8663,0,0,0,881.3568,231.2743Z"/><path class="c" d="M902.3381,227.6532a.8662.8662,0,0,0-.6125-1.0609l-3.35-.8976.8976-3.35a.8663.8663,0,0,0-1.6735-.4484l-1.1095,4.1407a.9539.9539,0,0,0,.6461,1.1191l4.1406,1.1095A.8662.8662,0,0,0,902.3381,227.6532Z"/></g><path class="ag" d="M49.1588,370.905V359.76a10.4617,10.4617,0,0,1,10.4618-10.4617h63.7475A10.4623,10.4623,0,0,1,133.83,359.7606v11.1438a10.4623,10.4623,0,0,1-10.4623,10.4623H59.6206A10.4618,10.4618,0,0,1,49.1588,370.905Z"/><path class="ag" d="M49.1588,376.3677v-22.07a4.999,4.999,0,0,1,4.999-4.999H128.83a5,5,0,0,1,5,5v22.0685a5,5,0,0,1-5,5H54.1579A4.9992,4.9992,0,0,1,49.1588,376.3677Z"/><rect class="ag" x="57.5419" y="356.6124" width="67.9054" height="17.4398"/><g class="m"><path class="d" d="M62.6094,358.4531h4.9765a8.2893,8.2893,0,0,1,4.0108.9258,6.4762,6.4762,0,0,1,2.6323,2.5918,8.4543,8.4543,0,0,1,0,7.6914,6.4732,6.4732,0,0,1-2.6323,2.5908,8.2893,8.2893,0,0,1-4.0108.9258H62.6094Zm4.8535,12.0928a4.9037,4.9037,0,0,0,3.64-1.2647,5.4137,5.4137,0,0,0,0-6.9306,4.9077,4.9077,0,0,0-3.64-1.2647H65.3857v9.46Z"/><path class="d" d="M77.7041,361.0244A1.6828,1.6828,0,0,1,77.19,359.79a1.6512,1.6512,0,0,1,.5142-1.2236,1.7,1.7,0,0,1,1.2339-.5039,1.72,1.72,0,0,1,1.7275,1.7275,1.7,1.7,0,0,1-.5039,1.2344,1.6484,1.6484,0,0,1-1.2236.5137A1.6821,1.6821,0,0,1,77.7041,361.0244Zm-.123,1.666h2.6938v10.4883H77.5811Z"/><path class="d" d="M81.92,362.69h3.023l1.81,6.8067h.1441l2.0976-6.8067h2.7559l2.0976,6.8067h.1441l1.81-6.8067h2.9819l-3.3521,10.4883h-2.9l-2.1386-6.7871H90.249l-2.1181,6.7871H85.2515Z"/><path class="d" d="M100.4907,372.5312a3.3048,3.3048,0,0,1-1.0693-2.56,3.1748,3.1748,0,0,1,.5552-1.8516,3.5848,3.5848,0,0,1,1.5219-1.2334,5.1849,5.1849,0,0,1,2.1392-.4316,7.3025,7.3025,0,0,1,2.7764.4727v-.4522a1.7263,1.7263,0,0,0-.648-1.3984,2.646,2.646,0,0,0-1.7378-.5352,3.1914,3.1914,0,0,0-1.4292.34,3.3514,3.3514,0,0,0-1.1416.8945L99.73,364.418a5.0786,5.0786,0,0,1,1.9126-1.5225,5.8839,5.8839,0,0,1,2.5088-.5342,5.3621,5.3621,0,0,1,3.6611,1.11,4.1114,4.1114,0,0,1,1.2544,3.249v6.458h-2.6528v-1.0693H106.25a3.582,3.582,0,0,1-1.2446,1.0078,4.2912,4.2912,0,0,1-4.5142-.586Zm5.2344-1.872a2.5166,2.5166,0,0,0,.689-1.7578,5.11,5.11,0,0,0-2.2007-.4942q-2.0978,0-2.0977,1.5635a1.3223,1.3223,0,0,0,.4522,1.0381,1.8907,1.8907,0,0,0,1.2959.4014A2.4023,2.4023,0,0,0,105.7251,370.6592Z"/><path class="d" d="M111.5552,358.4531h2.6938v14.7256h-2.6938Z"/><path class="d" d="M117.19,361.0244a1.6831,1.6831,0,0,1-.5141-1.2344,1.6515,1.6515,0,0,1,.5141-1.2236,1.7,1.7,0,0,1,1.2339-.5039,1.72,1.72,0,0,1,1.7276,1.7275,1.7,1.7,0,0,1-.5039,1.2344,1.6487,1.6487,0,0,1-1.2237.5137A1.6821,1.6821,0,0,1,117.19,361.0244Zm-.123,1.666h2.6938v10.4883h-2.6938Z"/></g><rect class="u" x="89.8372" y="380.5241" width="1.469" height="52.7976"/><circle class="ag" cx="91.0152" cy="434.9172" r="7.6501"/><rect class="u" x="258.8746" y="290.788" width="1.469" height="112.3649"/><path class="ag" d="M195.992,281.1687v-11.145a10.4618,10.4618,0,0,1,10.4618-10.4618h73.2273a10.4623,10.4623,0,0,1,10.4623,10.4623V281.168A10.4623,10.4623,0,0,1,279.6811,291.63H206.4538A10.4616,10.4616,0,0,1,195.992,281.1687Z"/><path class="au" d="M195.992,286.6314v-22.07a4.999,4.999,0,0,1,4.999-4.999H320.1183a5,5,0,0,1,5,5v22.0685a5,5,0,0,1-5,5H200.9911A4.9992,4.9992,0,0,1,195.992,286.6314Z"/><g class="m"><path class="d" d="M210.7734,267.6641H213.55v5.8818h6.19v-5.8818h2.7764V282.39H219.74v-6.2109h-6.19V282.39h-2.7764Z"/><path class="d" d="M225.6831,281.7422a3.3051,3.3051,0,0,1-1.0693-2.5606,3.175,3.175,0,0,1,.5551-1.8515,3.585,3.585,0,0,1,1.522-1.2334,5.1827,5.1827,0,0,1,2.1392-.4317,7.3036,7.3036,0,0,1,2.7763.4727v-.4522a1.7268,1.7268,0,0,0-.6479-1.3984,2.6466,2.6466,0,0,0-1.7378-.5351,3.1913,3.1913,0,0,0-1.4292.34,3.3517,3.3517,0,0,0-1.1416.8945l-1.7275-1.3574a5.08,5.08,0,0,1,1.9126-1.5225,5.8835,5.8835,0,0,1,2.5088-.5341,5.3628,5.3628,0,0,1,3.6611,1.11,4.1117,4.1117,0,0,1,1.2544,3.249v6.458h-2.6529V281.32h-.1645a3.5809,3.5809,0,0,1-1.2446,1.0078,4.2908,4.2908,0,0,1-4.5142-.5859Zm5.2344-1.8721a2.5163,2.5163,0,0,0,.6889-1.7578,5.11,5.11,0,0,0-2.2006-.4941q-2.0978,0-2.0977,1.5634a1.3223,1.3223,0,0,0,.4522,1.0381,1.8907,1.8907,0,0,0,1.2959.4014A2.4023,2.4023,0,0,0,230.9175,279.87Z"/><path class="d" d="M236.7476,267.6641h2.6938V282.39h-2.6938Z"/><path class="d" d="M242.0947,267.6641h2.6939V282.39h-2.6939Z"/><path class="d" d="M249.457,281.9883a5.1811,5.1811,0,0,1-1.9848-1.9942,6.0518,6.0518,0,0,1,0-5.6865,5.1648,5.1648,0,0,1,1.9848-2.0058,6.0868,6.0868,0,0,1,5.7788,0,5.1684,5.1684,0,0,1,1.9849,2.0058,6.0518,6.0518,0,0,1,0,5.6865,5.1847,5.1847,0,0,1-1.9849,1.9942,6.08,6.08,0,0,1-5.7788,0Zm4.3394-2.1279a2.7221,2.7221,0,0,0,1.0488-1.0694,3.3229,3.3229,0,0,0,.3906-1.6455,3.28,3.28,0,0,0-.3906-1.625,2.7212,2.7212,0,0,0-1.0488-1.0693,2.9853,2.9853,0,0,0-2.8794,0,2.789,2.789,0,0,0-1.0591,1.0693,3.2129,3.2129,0,0,0-.4009,1.625,3.2657,3.2657,0,0,0,.4009,1.6348,2.7731,2.7731,0,0,0,1.0591,1.08,2.9853,2.9853,0,0,0,2.8794,0Z"/><path class="d" d="M258.6089,271.9014h3.0229l1.81,6.8066h.144l2.0977-6.8066H268.44l2.0976,6.8066h.1441l1.81-6.8066h2.982L272.1206,282.39h-2.9l-2.1387-6.7871h-.144L264.82,282.39H261.94Z"/><path class="d" d="M278.8042,281.999a5.1554,5.1554,0,0,1-1.9644-1.9844,5.989,5.989,0,0,1-.01-5.6357,5.3944,5.3944,0,0,1,1.9331-2.0459,5.1494,5.1494,0,0,1,2.7559-.7607,5.3663,5.3663,0,0,1,2.7973.6992,4.5606,4.5606,0,0,1,1.7788,1.9121,5.9436,5.9436,0,0,1,.6065,2.6943,6.4081,6.4081,0,0,1-.0616.9053h-7.8769a2.9737,2.9737,0,0,0,.9976,1.9023,2.9092,2.9092,0,0,0,1.9023.6475,3.0368,3.0368,0,0,0,1.5937-.4014,2.9579,2.9579,0,0,0,1.06-1.0791l2.18,1.0694a5.2579,5.2579,0,0,1-4.874,2.7969A5.5611,5.5611,0,0,1,278.8042,281.999ZM284.11,275.87a2.0812,2.0812,0,0,0-.36-.9765,2.5031,2.5031,0,0,0-.8843-.8018,2.6524,2.6524,0,0,0-1.3261-.3193,2.5246,2.5246,0,0,0-1.6558.5654,3.174,3.174,0,0,0-.9976,1.5322Z"/><path class="d" d="M290.979,281.999a5.1554,5.1554,0,0,1-1.9644-1.9844,5.989,5.989,0,0,1-.01-5.6357,5.3944,5.3944,0,0,1,1.9331-2.0459,5.15,5.15,0,0,1,2.7559-.7607,5.3663,5.3663,0,0,1,2.7973.6992,4.5606,4.5606,0,0,1,1.7788,1.9121,5.9436,5.9436,0,0,1,.6065,2.6943,6.4233,6.4233,0,0,1-.0615.9053h-7.877a2.9737,2.9737,0,0,0,.9976,1.9023,2.9092,2.9092,0,0,0,1.9023.6475,3.0374,3.0374,0,0,0,1.5938-.4014,2.9576,2.9576,0,0,0,1.06-1.0791l2.18,1.0694a5.2579,5.2579,0,0,1-4.874,2.7969A5.5611,5.5611,0,0,1,290.979,281.999Zm5.3057-6.1289a2.0812,2.0812,0,0,0-.36-.9765,2.5031,2.5031,0,0,0-.8843-.8018,2.6524,2.6524,0,0,0-1.3261-.3193,2.5246,2.5246,0,0,0-1.6558.5654,3.174,3.174,0,0,0-.9976,1.5322Z"/><path class="d" d="M300.9531,271.9014h2.5293v1.3164h.1646a3.3059,3.3059,0,0,1,1.3369-1.2032,4.0458,4.0458,0,0,1,1.8716-.4423,3.5829,3.5829,0,0,1,2.8789,1.1513,4.6792,4.6792,0,0,1,.9873,3.1465V282.39h-2.6944v-6.19a2.213,2.213,0,0,0-.5141-1.5625,1.8646,1.8646,0,0,0-1.44-.5556,2.136,2.136,0,0,0-1.7583.8427,3.305,3.305,0,0,0-.6684,2.1192V282.39h-2.6939Z"/></g><circle class="au" cx="259.6091" cy="408.3369" r="7.6501"/><rect class="u" x="456.4446" y="274.0944" width="1.469" height="112.3649"/><path class="ad" d="M392.592,289.4209v-11.145a10.4618,10.4618,0,0,1,10.4618-10.4618h73.8346a10.4623,10.4623,0,0,1,10.4623,10.4623V289.42a10.4623,10.4623,0,0,1-10.4623,10.4623H403.0538A10.4615,10.4615,0,0,1,392.592,289.4209Z"/><path class="ad" d="M392.592,294.8837v-22.07a4.999,4.999,0,0,1,4.999-4.999h119.96a5,5,0,0,1,5,5v22.0685a5,5,0,0,1-5,5H397.591A4.9992,4.9992,0,0,1,392.592,294.8837Z"/><g class="m"><path class="d" d="M408.4019,289.8809a5.7285,5.7285,0,0,1-2.0772-3.085l2.6118-1.0283a3.85,3.85,0,0,0,1.0489,1.8711,2.5873,2.5873,0,0,0,1.851.6992,2.6892,2.6892,0,0,0,1.5835-.4619,1.4854,1.4854,0,0,0,.6577-1.2862,1.6765,1.6765,0,0,0-.6269-1.3466,8.1371,8.1371,0,0,0-2.2315-1.1211l-.9047-.3291a6.2446,6.2446,0,0,1-2.4268-1.5118,3.4905,3.4905,0,0,1-1.0078-2.56,3.8554,3.8554,0,0,1,.5962-2.0977,4.1151,4.1151,0,0,1,1.6865-1.49,5.4432,5.4432,0,0,1,2.4678-.5449,4.6493,4.6493,0,0,1,4.73,3.126l-2.4472,1.0283a2.4544,2.4544,0,0,0-.792-1.1416,2.2154,2.2154,0,0,0-1.45-.4629,2.4887,2.4887,0,0,0-1.4912.4219,1.2964,1.2964,0,0,0-.586,1.1,1.4108,1.4108,0,0,0,.5552,1.1211,5.9339,5.9339,0,0,0,1.83.8945l.9258.3086a7.1339,7.1339,0,0,1,2.9306,1.7383,4.4119,4.4119,0,0,1,.2774,5.2646,4.5325,4.5325,0,0,1-1.9024,1.4912,6.0842,6.0842,0,0,1-2.396.4932A5.6061,5.6061,0,0,1,408.4019,289.8809Z"/><path class="d" d="M419.4038,278.4873a1.6828,1.6828,0,0,1-.5142-1.2344,1.6512,1.6512,0,0,1,.5142-1.2236,1.7,1.7,0,0,1,1.2339-.5039,1.72,1.72,0,0,1,1.7275,1.7275,1.7,1.7,0,0,1-.5039,1.2344,1.6484,1.6484,0,0,1-1.2236.5137A1.6821,1.6821,0,0,1,419.4038,278.4873Zm-.123,1.666h2.6938v10.4883h-2.6938Z"/><path class="d" d="M424.7925,280.1533h2.5293V281.47h.1645a3.3063,3.3063,0,0,1,1.3369-1.2031,4.0459,4.0459,0,0,1,1.8716-.4424,3.5826,3.5826,0,0,1,2.8789,1.1514,4.679,4.679,0,0,1,.9873,3.1465v6.5195h-2.6943v-6.19a2.213,2.213,0,0,0-.5142-1.5625,1.8643,1.8643,0,0,0-1.4394-.5557,2.136,2.136,0,0,0-1.7583.8428,3.3048,3.3048,0,0,0-.6685,2.1191v5.3467h-2.6938Z"/><path class="d" d="M438.53,294.5186a4.4284,4.4284,0,0,1-1.7686-2.1495l2.53-1.0283a2.7035,2.7035,0,0,0,2.55,1.6865,2.6791,2.6791,0,0,0,2.0254-.7812,3.08,3.08,0,0,0,.751-2.2217v-.8223h-.1646a3.1966,3.1966,0,0,1-1.2959,1.0694,4.3167,4.3167,0,0,1-1.83.37,4.6385,4.6385,0,0,1-2.4165-.668,4.93,4.93,0,0,1-1.8-1.8925,6.3155,6.3155,0,0,1,0-5.6963,4.9441,4.9441,0,0,1,1.8-1.8926,4.6385,4.6385,0,0,1,2.4165-.668,4.3182,4.3182,0,0,1,1.83.37,3.1974,3.1974,0,0,1,1.2959,1.0694h.1646v-1.11H447.21v9.7686a6.1233,6.1233,0,0,1-.6582,2.92,4.5908,4.5908,0,0,1-1.8716,1.9023,6.473,6.473,0,0,1-6.1494-.2255Zm5.2856-7.1163a3.3784,3.3784,0,0,0,.01-4.3593,2.834,2.834,0,0,0-3.8975.01,3.3653,3.3653,0,0,0,0,4.36,2.6977,2.6977,0,0,0,1.9541.7812A2.65,2.65,0,0,0,443.8159,287.4023Z"/><path class="d" d="M449.8413,275.916h2.6939v14.7256h-2.6939Z"/><path class="d" d="M457.1836,290.251a5.1554,5.1554,0,0,1-1.9644-1.9844,5.989,5.989,0,0,1-.01-5.6357,5.3937,5.3937,0,0,1,1.9331-2.0459,5.1485,5.1485,0,0,1,2.7558-.7608,5.3665,5.3665,0,0,1,2.7974.6992,4.5617,4.5617,0,0,1,1.7788,1.9121,5.944,5.944,0,0,1,.6065,2.6944,6.4092,6.4092,0,0,1-.0616.9053h-7.8769a2.9741,2.9741,0,0,0,.9975,1.9023,2.91,2.91,0,0,0,1.9024.6475,3.0368,3.0368,0,0,0,1.5937-.4014,2.9586,2.9586,0,0,0,1.06-1.0791l2.18,1.0693a5.2578,5.2578,0,0,1-4.874,2.7969A5.561,5.561,0,0,1,457.1836,290.251Zm5.3057-6.1289a2.0819,2.0819,0,0,0-.36-.9766,2.5029,2.5029,0,0,0-.8843-.8017,2.6526,2.6526,0,0,0-1.3262-.3194,2.525,2.525,0,0,0-1.6557.5654,3.1743,3.1743,0,0,0-.9976,1.5323Z"/><path class="d" d="M472.34,275.916h4.9766a8.2889,8.2889,0,0,1,4.0107.9258,6.4765,6.4765,0,0,1,2.6324,2.5918,8.4543,8.4543,0,0,1,0,7.6914,6.4735,6.4735,0,0,1-2.6324,2.5908,8.2889,8.2889,0,0,1-4.0107.9258H472.34Zm4.8535,12.0928a4.9038,4.9038,0,0,0,3.64-1.2647,5.4137,5.4137,0,0,0,0-6.9306,4.9078,4.9078,0,0,0-3.64-1.2647h-2.0771v9.46Z"/><path class="d" d="M487.62,289.9941a3.3048,3.3048,0,0,1-1.0693-2.56,3.1748,3.1748,0,0,1,.5552-1.8516,3.5848,3.5848,0,0,1,1.5219-1.2334,5.1833,5.1833,0,0,1,2.1392-.4316,7.3045,7.3045,0,0,1,2.7764.4726v-.4521a1.7266,1.7266,0,0,0-.648-1.3984,2.646,2.646,0,0,0-1.7378-.5352,3.1914,3.1914,0,0,0-1.4292.34,3.3514,3.3514,0,0,0-1.1416.8945l-1.7275-1.3574a5.0786,5.0786,0,0,1,1.9126-1.5225,5.8839,5.8839,0,0,1,2.5088-.5342,5.3621,5.3621,0,0,1,3.6611,1.11,4.1114,4.1114,0,0,1,1.2544,3.249v6.458h-2.6528v-1.0693h-.1646a3.582,3.582,0,0,1-1.2446,1.0078,4.2912,4.2912,0,0,1-4.5142-.586Zm5.2344-1.872a2.5166,2.5166,0,0,0,.689-1.7578,5.11,5.11,0,0,0-2.2007-.4942q-2.0978,0-2.0977,1.5635a1.3223,1.3223,0,0,0,.4522,1.0381,1.8907,1.8907,0,0,0,1.2959.4013A2.4026,2.4026,0,0,0,492.8545,288.1221Z"/><path class="d" d="M501.7485,290.1484l-4.4214-9.9951h3.0645l2.7144,6.52h.1645l2.6118-6.52h3.003l-6.4786,14.9307h-2.8994Z"/></g><circle class="ad" cx="457.1792" cy="391.6433" r="7.6501"/><rect class="u" x="643.0122" y="41.9363" width="1.469" height="62.6899"/><path class="g" d="M482.3981,57.9787V46.8337A10.4618,10.4618,0,0,1,492.86,36.3719h214.517a10.4623,10.4623,0,0,1,10.4623,10.4623V57.978A10.4623,10.4623,0,0,1,707.3768,68.44H492.86A10.4616,10.4616,0,0,1,482.3981,57.9787Z"/><path class="g" d="M482.3981,63.4414V41.3709a4.999,4.999,0,0,1,4.999-4.999H800.3a5,5,0,0,1,5,5V63.44a5,5,0,0,1-5,5H487.3972A4.999,4.999,0,0,1,482.3981,63.4414Z"/><g class="m"><path class="d" d="M503.0557,44.4746h5.7583a5.05,5.05,0,0,1,2.2724.5147,4.1468,4.1468,0,0,1,1.6353,1.3984,3.5443,3.5443,0,0,1,.0512,3.8564,3.591,3.591,0,0,1-1.4291,1.2442v.164a3.87,3.87,0,0,1,1.83,1.3057,3.4535,3.4535,0,0,1,.6787,2.1494,3.6816,3.6816,0,0,1-.6479,2.1494,4.2028,4.2028,0,0,1-1.7481,1.44,5.7841,5.7841,0,0,1-2.437.5039h-5.9638Zm5.5527,6.0059a2.0512,2.0512,0,0,0,1.45-.5039,1.7391,1.7391,0,0,0,.02-2.5088,1.9186,1.9186,0,0,0-1.3882-.5039H505.832v3.5166Zm.3086,6.19a2.2267,2.2267,0,0,0,1.5732-.5244,1.78,1.78,0,0,0,.5655-1.3682A1.8,1.8,0,0,0,510.48,53.4a2.331,2.331,0,0,0-1.6455-.5342H505.832v3.8047Z"/><path class="d" d="M515.9912,44.4746h2.6939V59.2h-2.6939Z"/><path class="d" d="M521.7085,58.5527a3.3048,3.3048,0,0,1-1.0693-2.5605,3.1755,3.1755,0,0,1,.5551-1.8516,3.5844,3.5844,0,0,1,1.522-1.2334,5.1826,5.1826,0,0,1,2.1392-.4316,7.3037,7.3037,0,0,1,2.7763.4726v-.4521a1.7265,1.7265,0,0,0-.6479-1.3984,2.646,2.646,0,0,0-1.7378-.5352,3.1923,3.1923,0,0,0-1.4292.34,3.3519,3.3519,0,0,0-1.1416.8946L520.9478,50.44A5.0776,5.0776,0,0,1,522.86,48.917a5.882,5.882,0,0,1,2.5087-.5342,5.3626,5.3626,0,0,1,3.6612,1.11,4.1114,4.1114,0,0,1,1.2544,3.249V59.2h-2.6529V58.1309h-.1645a3.582,3.582,0,0,1-1.2446,1.0078,4.2912,4.2912,0,0,1-4.5142-.586Zm5.2344-1.872a2.5165,2.5165,0,0,0,.6889-1.7578,5.11,5.11,0,0,0-2.2006-.4942q-2.0978,0-2.0977,1.5635a1.3226,1.3226,0,0,0,.4521,1.0381,1.8909,1.8909,0,0,0,1.2959.4013A2.4027,2.4027,0,0,0,526.9429,56.6807Z"/><path class="d" d="M534.7681,58.8193a5.0572,5.0572,0,0,1-1.9644-1.9843,6.1759,6.1759,0,0,1,0-5.7481,5.1548,5.1548,0,0,1,1.9644-1.9844,5.6013,5.6013,0,0,1,2.8379-.72,5.7462,5.7462,0,0,1,3.0024.75,4.28,4.28,0,0,1,1.81,2.1289L539.9507,52.29a2.3712,2.3712,0,0,0-2.3447-1.3984,2.658,2.658,0,0,0-2.0259.8428,3.5412,3.5412,0,0,0,0,4.4629,2.6552,2.6552,0,0,0,2.0259.8437,2.5776,2.5776,0,0,0,2.4677-1.4814l2.4473,1.07a5.0453,5.0453,0,0,1-1.9331,2.1387,6.1267,6.1267,0,0,1-5.82.0507Z"/><path class="d" d="M544.4546,44.4746h2.6938v8.0215h.1441l3.7637-3.7842h3.311v.1641l-3.9693,3.8867,4.1543,6.2734V59.2h-3.1875l-2.8588-4.5859-1.3575,1.3369V59.2h-2.6938Z"/><path class="d" d="M561.1328,44.4746H570.47v2.6328h-6.56v3.5781h5.9023v2.6329h-5.9023V59.2h-2.7764Z"/><path class="d" d="M572.1357,48.7119h2.5293V50.11h.1646a3.1649,3.1649,0,0,1,1.2134-1.2344,3.5977,3.5977,0,0,1,3.1259-.2471v2.6738a8.7751,8.7751,0,0,0-.9355-.2978,3.4405,3.4405,0,0,0-.8125-.0928,2.3039,2.3039,0,0,0-1.8921.8662,3.3661,3.3661,0,0,0-.6992,2.1856V59.2h-2.6939Z"/><path class="d" d="M581.2046,47.0459a1.6828,1.6828,0,0,1-.5142-1.2344,1.6512,1.6512,0,0,1,.5142-1.2236,1.7,1.7,0,0,1,1.2339-.5039,1.72,1.72,0,0,1,1.7275,1.7275,1.7,1.7,0,0,1-.5039,1.2344,1.6484,1.6484,0,0,1-1.2236.5137A1.6821,1.6821,0,0,1,581.2046,47.0459Zm-.1231,1.666h2.6939V59.2h-2.6939Z"/><path class="d" d="M588.4131,58.8193a4.9871,4.9871,0,0,1-1.8306-1.9736,6.5574,6.5574,0,0,1,0-5.7686,4.9754,4.9754,0,0,1,1.8306-1.9853,4.857,4.857,0,0,1,2.581-.709,3.7945,3.7945,0,0,1,1.8921.4629,3.4485,3.4485,0,0,1,1.2544,1.1406h.1646l-.1646-1.48V44.4746h2.6734V59.2h-2.5088V57.9453h-.1646a3.1828,3.1828,0,0,1-1.2441,1.1318,3.9332,3.9332,0,0,1-1.9024.4522A4.8488,4.8488,0,0,1,588.4131,58.8193Zm4.4521-2.1689a2.8611,2.8611,0,0,0,1.0489-1.0908,3.4848,3.4848,0,0,0,0-3.208,2.801,2.801,0,0,0-2.4678-1.46,2.7467,2.7467,0,0,0-1.3984.3809,2.7873,2.7873,0,0,0-1.0489,1.0791,3.4887,3.4887,0,0,0,0,3.208,2.8611,2.8611,0,0,0,1.0489,1.0908,2.7,2.7,0,0,0,1.3984.3906A2.7378,2.7378,0,0,0,592.8652,56.65Z"/><path class="d" d="M599.8374,58.5527a3.3048,3.3048,0,0,1-1.0693-2.5605,3.1755,3.1755,0,0,1,.5551-1.8516,3.5844,3.5844,0,0,1,1.522-1.2334,5.1826,5.1826,0,0,1,2.1392-.4316,7.3037,7.3037,0,0,1,2.7763.4726v-.4521a1.725,1.725,0,0,0-.6479-1.3984,2.646,2.646,0,0,0-1.7378-.5352,3.1923,3.1923,0,0,0-1.4292.34,3.3519,3.3519,0,0,0-1.1416.8946L599.0767,50.44a5.0776,5.0776,0,0,1,1.9126-1.5225,5.882,5.882,0,0,1,2.5087-.5342,5.3587,5.3587,0,0,1,3.66,1.11,4.1055,4.1055,0,0,1,1.2559,3.249V59.2h-2.6534V58.1309h-.165a3.5756,3.5756,0,0,1-1.2441,1.0078,4.2912,4.2912,0,0,1-4.5142-.586Zm5.2344-1.872a2.5147,2.5147,0,0,0,.6889-1.7578,5.11,5.11,0,0,0-2.2006-.4942q-2.0978,0-2.0977,1.5635a1.3223,1.3223,0,0,0,.4522,1.0381,1.89,1.89,0,0,0,1.2958.4013A2.4027,2.4027,0,0,0,605.0718,56.6807Z"/><path class="d" d="M613.9658,58.707l-4.4219-9.9951h3.0645l2.7148,6.52h.1651l2.6113-6.52h3.0029L614.624,63.6426h-2.8994Z"/><path class="d" d="M627.375,51.6318h6.9717v2.3858H627.375Z"/><path class="d" d="M644.7939,58.5117a7.4666,7.4666,0,0,1-2.7871-2.7773,7.9715,7.9715,0,0,1,0-7.794,7.4713,7.4713,0,0,1,2.7871-2.7763,7.6912,7.6912,0,0,1,3.9073-1.0176,7.1175,7.1175,0,0,1,5.5117,2.4053l-1.9541,1.8925a4.46,4.46,0,0,0-3.5371-1.666,5.085,5.085,0,0,0-2.5088.627,4.5372,4.5372,0,0,0-1.7793,1.7793,5.758,5.758,0,0,0,0,5.3056,4.5242,4.5242,0,0,0,1.7793,1.7793,5.085,5.085,0,0,0,2.5088.627,4.8086,4.8086,0,0,0,3.8867-1.9326l1.9746,1.8711a7.2845,7.2845,0,0,1-2.581,2.0048,8.1151,8.1151,0,0,1-7.2081-.3281Z"/><path class="d" d="M659.2314,58.707,654.81,48.7119h3.0644l2.7149,6.52h.165l2.6113-6.52h3.003L659.89,63.6426H656.99Z"/><path class="d" d="M671.5811,59.0771a3.1734,3.1734,0,0,1-1.2442-1.1318h-.165V59.2h-2.5293V44.4746h2.6943v4.0313l-.165,1.48h.165a3.44,3.44,0,0,1,1.2539-1.1406,3.7924,3.7924,0,0,1,1.8926-.4629,4.85,4.85,0,0,1,4.4,2.6943,6.6487,6.6487,0,0,1,0,5.7686,4.9163,4.9163,0,0,1-1.8193,1.9736,4.8539,4.8539,0,0,1-2.5811.71A3.9256,3.9256,0,0,1,671.5811,59.0771Zm2.8476-2.4267a2.8529,2.8529,0,0,0,1.0488-1.0908,3.4808,3.4808,0,0,0,0-3.208,2.8007,2.8007,0,0,0-2.4677-1.46,2.7487,2.7487,0,0,0-1.3985.3809,2.794,2.794,0,0,0-1.0488,1.0791,3.4887,3.4887,0,0,0,0,3.208,2.8682,2.8682,0,0,0,1.0488,1.0908,2.7021,2.7021,0,0,0,1.3985.3906A2.7355,2.7355,0,0,0,674.4287,56.65Z"/><path class="d" d="M682.7168,58.81a5.1473,5.1473,0,0,1-1.9639-1.9844,5.9871,5.9871,0,0,1-.0107-5.6357,5.3836,5.3836,0,0,1,1.9336-2.0459,5.1472,5.1472,0,0,1,2.7558-.7608,5.3636,5.3636,0,0,1,2.7969.6992,4.5568,4.5568,0,0,1,1.7783,1.9121,5.9446,5.9446,0,0,1,.6075,2.6944,6.2754,6.2754,0,0,1-.0625.9053h-7.876a2.9687,2.9687,0,0,0,.9971,1.9023,2.9088,2.9088,0,0,0,1.9023.6475,3.0368,3.0368,0,0,0,1.5937-.4014,2.9617,2.9617,0,0,0,1.06-1.0791l2.18,1.0693a5.2583,5.2583,0,0,1-4.874,2.7969A5.561,5.561,0,0,1,682.7168,58.81Zm5.3057-6.1289a2.0864,2.0864,0,0,0-.3594-.9766,2.51,2.51,0,0,0-.8848-.8018,2.6536,2.6536,0,0,0-1.3262-.3193,2.5292,2.5292,0,0,0-1.6562.5654,3.1806,3.1806,0,0,0-.9971,1.5323Z"/><path class="d" d="M692.6914,48.7119h2.5293V50.11h.165a3.158,3.158,0,0,1,1.2129-1.2344,3.5979,3.5979,0,0,1,3.126-.2471v2.6738a8.7393,8.7393,0,0,0-.9355-.2978,3.4411,3.4411,0,0,0-.8125-.0928,2.3035,2.3035,0,0,0-1.8916.8662,3.3633,3.3633,0,0,0-.6993,2.1856V59.2h-2.6943Z"/><path class="d" d="M706.6553,44.4746h3.5781l3.9072,10.3447h.1651l3.9072-10.3447h3.6V59.2h-2.7559V51.94l.1641-2.4472h-.1641L715.3135,59.2h-2.1592l-3.7637-9.707h-.165l.165,2.4472V59.2h-2.7353Z"/><path class="d" d="M726.9121,58.7988a5.1771,5.1771,0,0,1-1.9844-1.9941,6.0487,6.0487,0,0,1,0-5.6865,5.1613,5.1613,0,0,1,1.9844-2.0059,6.0878,6.0878,0,0,1,5.7793,0,5.1748,5.1748,0,0,1,1.9844,2.0059,6.0555,6.0555,0,0,1,0,5.6865,5.1907,5.1907,0,0,1-1.9844,1.9941,6.0805,6.0805,0,0,1-5.7793,0Zm4.3389-2.1279A2.71,2.71,0,0,0,732.3,55.6016a3.3192,3.3192,0,0,0,.3916-1.6455,3.2757,3.2757,0,0,0-.3916-1.625,2.71,2.71,0,0,0-1.0488-1.0694,2.9843,2.9843,0,0,0-2.8789,0,2.7846,2.7846,0,0,0-1.0586,1.0694,3.208,3.208,0,0,0-.4014,1.625,3.26,3.26,0,0,0,.4014,1.6347,2.7679,2.7679,0,0,0,1.0586,1.08,2.9843,2.9843,0,0,0,2.8789,0Z"/><path class="d" d="M737.2363,48.7119h2.5293v1.3164h.1651a3.2989,3.2989,0,0,1,1.3359-1.2031,4.0494,4.0494,0,0,1,1.8721-.4424,3.5841,3.5841,0,0,1,2.8789,1.1514,4.679,4.679,0,0,1,.9873,3.1465V59.2h-2.6944V53.01a2.2133,2.2133,0,0,0-.5136-1.5625,1.8657,1.8657,0,0,0-1.44-.5557,2.1357,2.1357,0,0,0-1.7588.8428,3.3073,3.3073,0,0,0-.6679,2.1191V59.2h-2.6944Z"/><path class="d" d="M751.4785,58.8193a4.99,4.99,0,0,1-1.83-1.9736,6.553,6.553,0,0,1,0-5.7686,4.9785,4.9785,0,0,1,1.83-1.9853,4.8571,4.8571,0,0,1,2.5811-.709,3.7888,3.7888,0,0,1,1.8916.4629,3.4429,3.4429,0,0,1,1.2549,1.1406h.164l-.164-1.48V44.4746H759.88V59.2h-2.51V57.9453h-.164a3.1873,3.1873,0,0,1-1.2442,1.1318,3.9314,3.9314,0,0,1-1.9023.4522A4.8489,4.8489,0,0,1,751.4785,58.8193Zm4.4522-2.1689A2.8682,2.8682,0,0,0,756.98,55.56a3.4887,3.4887,0,0,0,0-3.208,2.8007,2.8007,0,0,0-2.4678-1.46,2.7486,2.7486,0,0,0-1.3984.3809,2.7933,2.7933,0,0,0-1.0488,1.0791,3.4879,3.4879,0,0,0,0,3.208,2.8675,2.8675,0,0,0,1.0488,1.0908,2.702,2.702,0,0,0,1.3984.3906A2.7382,2.7382,0,0,0,755.9307,56.65Z"/><path class="d" d="M762.9023,58.5527a3.3051,3.3051,0,0,1-1.0693-2.5605,3.1759,3.1759,0,0,1,.5557-1.8516,3.5793,3.5793,0,0,1,1.5215-1.2334,5.1818,5.1818,0,0,1,2.1386-.4316,7.301,7.301,0,0,1,2.7764.4726v-.4521a1.7258,1.7258,0,0,0-.6475-1.3984,2.6464,2.6464,0,0,0-1.7382-.5352,3.1922,3.1922,0,0,0-1.4288.34,3.3577,3.3577,0,0,0-1.1416.8946L762.1416,50.44a5.08,5.08,0,0,1,1.9121-1.5225,5.8885,5.8885,0,0,1,2.51-.5342,5.36,5.36,0,0,1,3.66,1.11,4.1084,4.1084,0,0,1,1.2549,3.249V59.2h-2.6533V58.1309h-.1641a3.5793,3.5793,0,0,1-1.2441,1.0078,4.292,4.292,0,0,1-4.5147-.586Zm5.2344-1.872a2.5161,2.5161,0,0,0,.6885-1.7578,5.1064,5.1064,0,0,0-2.2-.4942q-2.0976,0-2.0977,1.5635A1.3223,1.3223,0,0,0,764.98,57.03a1.8907,1.8907,0,0,0,1.2959.4013A2.4025,2.4025,0,0,0,768.1367,56.6807Z"/><path class="d" d="M777.0312,58.707l-4.4218-9.9951h3.0644l2.7149,6.52h.165l2.6113-6.52h3.003L777.69,63.6426H774.79Z"/></g><circle class="g" cx="643.7466" cy="109.8103" r="7.6501"/><rect class="u" x="1060.1351" y="174.3108" width="1.469" height="112.3649"/><path class="ad" d="M997.7515,189.6374v-11.145a10.4616,10.4616,0,0,1,10.4618-10.4617h71.6518a10.4623,10.4623,0,0,1,10.4623,10.4623v11.1438a10.4623,10.4623,0,0,1-10.4623,10.4623h-71.6519A10.4616,10.4616,0,0,1,997.7515,189.6374Z"/><path class="n" d="M997.7515,195.1V173.03a4.999,4.999,0,0,1,4.999-4.999h116.9668a5,5,0,0,1,5,5v22.0685a5,5,0,0,1-5,5H1002.7506A4.9991,4.9991,0,0,1,997.7515,195.1Z"/><g class="m"><path class="d" d="M1014.1279,191.6387a7.4655,7.4655,0,0,1-2.7871-2.7774,7.9706,7.9706,0,0,1,0-7.7939,7.47,7.47,0,0,1,2.7871-2.7764,7.6909,7.6909,0,0,1,3.9073-1.0176,7.1165,7.1165,0,0,1,5.5117,2.4053l-1.9531,1.8926a4.4627,4.4627,0,0,0-3.5381-1.666,5.0887,5.0887,0,0,0-2.5088.6269,4.5443,4.5443,0,0,0-1.7793,1.7793,5.7582,5.7582,0,0,0,0,5.3057,4.532,4.532,0,0,0,1.7793,1.7793,5.0877,5.0877,0,0,0,2.5088.6269,4.81,4.81,0,0,0,3.8877-1.9326l1.9736,1.8711a7.2854,7.2854,0,0,1-2.5811,2.0049,8.1157,8.1157,0,0,1-7.208-.3281Z"/><path class="d" d="M1025.9121,177.6016h2.6943v3.7226l-.165,1.8311h.165a3.2718,3.2718,0,0,1,1.3165-1.1934,3.9675,3.9675,0,0,1,1.871-.4521,3.7186,3.7186,0,0,1,2.9307,1.1416,4.5733,4.5733,0,0,1,1.0176,3.1562v6.5195h-2.6934v-6.19a2.14,2.14,0,0,0-.5449-1.5625,1.942,1.942,0,0,0-1.45-.5556,2.1538,2.1538,0,0,0-1.7588.8642,3.289,3.289,0,0,0-.6885,2.1182v5.3261h-2.6943Z"/><path class="d" d="M1038.293,181.8389h2.5293v1.3984h.164a3.1683,3.1683,0,0,1,1.2139-1.2344,3.5983,3.5983,0,0,1,3.126-.247V184.43a8.8317,8.8317,0,0,0-.9356-.2979,3.4406,3.4406,0,0,0-.8125-.0927,2.3041,2.3041,0,0,0-1.8926.8662,3.3684,3.3684,0,0,0-.6992,2.1855v5.2363h-2.6933Z"/><path class="d" d="M1047.3613,180.1729a1.6828,1.6828,0,0,1-.5136-1.2344,1.6514,1.6514,0,0,1,.5136-1.2237,1.7,1.7,0,0,1,1.2344-.5039,1.72,1.72,0,0,1,1.7275,1.7276,1.7,1.7,0,0,1-.5039,1.2344,1.6494,1.6494,0,0,1-1.2236.5136A1.6827,1.6827,0,0,1,1047.3613,180.1729Zm-.123,1.666h2.6943v10.4882h-2.6943Z"/><path class="d" d="M1053.6445,191.875a4.1636,4.1636,0,0,1-1.6562-2.0361l2.4062-1.0489a2.4579,2.4579,0,0,0,.9366,1.1211,2.5973,2.5973,0,0,0,1.4082.38,2.8451,2.8451,0,0,0,1.2343-.2363.7988.7988,0,0,0,.4932-.7715.8354.8354,0,0,0-.4522-.7715,5.2162,5.2162,0,0,0-1.3574-.4619l-1.2343-.2676a4.5158,4.5158,0,0,1-2.1182-1.1211,2.6949,2.6949,0,0,1-.8428-2.0254,2.6254,2.6254,0,0,1,.5449-1.625,3.5029,3.5029,0,0,1,1.48-1.11,5.3076,5.3076,0,0,1,2.0674-.3906q3.249,0,4.3389,2.2822L1058.59,184.8a2.3734,2.3734,0,0,0-3.0839-.8535.752.752,0,0,0-.4121.6484q0,.74,1.3984,1.11l1.543.37a4.9238,4.9238,0,0,1,2.3544,1.1924,2.7049,2.7049,0,0,1,.792,1.9746,2.8624,2.8624,0,0,1-.5859,1.7793,3.8559,3.8559,0,0,1-1.6045,1.2031,5.7074,5.7074,0,0,1-2.2519.4316A5.5256,5.5256,0,0,1,1053.6445,191.875Z"/><path class="d" d="M1066.1592,192.415a2.8312,2.8312,0,0,1-1.07-.66,3.5819,3.5819,0,0,1-.9659-2.6846v-4.9287h-1.831v-2.3027h1.831V178.877h2.6934v2.9619h2.5713v2.3027h-2.5713v4.4629a1.6615,1.6615,0,0,0,.35,1.1836,1.2394,1.2394,0,0,0,.9873.3389,1.7437,1.7437,0,0,0,.6485-.1036,4.931,4.931,0,0,0,.6679-.35v2.6328a5.0358,5.0358,0,0,1-1.8711.35A4.1638,4.1638,0,0,1,1066.1592,192.415Z"/><path class="d" d="M1071.7324,181.8389h2.5293v1.3164h.1641a3.5105,3.5105,0,0,1,1.3271-1.2032,3.9016,3.9016,0,0,1,1.8614-.4423,3.5181,3.5181,0,0,1,1.9326.5244,2.977,2.977,0,0,1,1.1719,1.3262,3.9461,3.9461,0,0,1,1.4091-1.337,4.1594,4.1594,0,0,1,2.1084-.5136,3.3814,3.3814,0,0,1,2.7246,1.1,4.4383,4.4383,0,0,1,.9356,2.9726v6.7451h-2.6729v-6.2519a2.2547,2.2547,0,0,0-.4629-1.5215,1.6113,1.6113,0,0,0-1.2861-.5351,1.9913,1.9913,0,0,0-1.6758.833,3.55,3.55,0,0,0-.6269,2.19v5.2851h-2.6944v-6.2519a2.1906,2.1906,0,0,0-.4834-1.5215,1.7493,1.7493,0,0,0-1.3671-.5351,1.8811,1.8811,0,0,0-1.5938.833,3.63,3.63,0,0,0-.6074,2.19v5.2851h-2.6934Z"/><path class="d" d="M1090.8369,191.68a3.3051,3.3051,0,0,1-1.0693-2.5606,3.1753,3.1753,0,0,1,.5556-1.8515,3.58,3.58,0,0,1,1.5215-1.2334,5.1837,5.1837,0,0,1,2.14-.4317,7.3071,7.3071,0,0,1,2.7763.4727v-.4522a1.7272,1.7272,0,0,0-.6484-1.3984,2.6442,2.6442,0,0,0-1.7373-.5351,3.1918,3.1918,0,0,0-1.43.34,3.3574,3.3574,0,0,0-1.1416.8945l-1.7275-1.3574a5.0773,5.0773,0,0,1,1.9131-1.5225,5.8818,5.8818,0,0,1,2.5087-.5341,5.3638,5.3638,0,0,1,3.6612,1.11,4.1115,4.1115,0,0,1,1.2539,3.249v6.458h-2.6524v-1.0693h-.165a3.5791,3.5791,0,0,1-1.2441,1.0078,4.2922,4.2922,0,0,1-4.5147-.5859Zm5.2344-1.8721a2.5168,2.5168,0,0,0,.6894-1.7578,5.1138,5.1138,0,0,0-2.2011-.4941q-2.0977,0-2.0977,1.5634a1.3223,1.3223,0,0,0,.4522,1.0381,1.8907,1.8907,0,0,0,1.2959.4014A2.4023,2.4023,0,0,0,1096.0713,189.8076Z"/><path class="d" d="M1102.6934,191.875a4.1666,4.1666,0,0,1-1.6553-2.0361l2.4062-1.0489a2.4561,2.4561,0,0,0,.9356,1.1211,2.6008,2.6008,0,0,0,1.4092.38,2.8408,2.8408,0,0,0,1.2334-.2363.8.8,0,0,0,.4941-.7715.8346.8346,0,0,0-.4531-.7715,5.2053,5.2053,0,0,0-1.3574-.4619l-1.2334-.2676a4.5067,4.5067,0,0,1-2.1182-1.1211,2.6957,2.6957,0,0,1-.8438-2.0254,2.6249,2.6249,0,0,1,.545-1.625,3.5052,3.5052,0,0,1,1.4814-1.11,5.3029,5.3029,0,0,1,2.0664-.3906q3.249,0,4.34,2.2822L1107.64,184.8a2.3747,2.3747,0,0,0-3.0849-.8535.7528.7528,0,0,0-.4111.6484q0,.74,1.3984,1.11l1.542.37a4.928,4.928,0,0,1,2.3555,1.1924,2.7044,2.7044,0,0,1,.791,1.9746,2.8619,2.8619,0,0,1-.586,1.7793,3.8526,3.8526,0,0,1-1.6035,1.2031,5.7074,5.7074,0,0,1-2.2519.4316A5.5286,5.5286,0,0,1,1102.6934,191.875Z"/></g><circle class="n" cx="1060.8696" cy="291.8597" r="7.6501"/></svg>