<svg xmlns="http://www.w3.org/2000/svg" width="396.9" height="559.4">
  <defs/>
  <g fill="none" stroke="#017b19" stroke-width="1.4">
    <path stroke-miterlimit="0" d="M156 118c0 6-4 15-1 19 5 11 6 23 6 36"/>
    <path stroke-miterlimit="0" d="M156 120c-13-13-12 23-12 28 0 7 4 54 6 56 3 1 11-3 15-3M168 164s2 7 1 8M173 172v-6-2c3 0 4 12 4 5l2-6M181 164l1 5c0 7 2-4 3-6M187 163c2 2-4 8 1 8h3M187 167h3M187 164h4M195 163c-3 0-1 7-1 8M195 162c2-2 4 3 3 5h-1c2 0 2 3 3 4M204 163c0 2-1 7 1 8M202 163h6M219 171l-1-8c5 0 6 4 1 4h-1a48515 48515 0 005 4M167 164h3M168 172h2"/>
    <path stroke-miterlimit="0" d="M162 160c0 3-2 13 1 15 1 1 13-1 15-1 5 0 18 1 21-1 5-2 21 2 27 0l1-1-2-13v-2l-16 2-19 1h-28"/>
    <path stroke-miterlimit="0" d="M160 175c5 5 5 24 5 30 14-3 61 6 71 1 1-1-1-2-1-3 0-7-7-18-2-26 3-4-6-4-9-4"/>
    <path stroke-miterlimit="0" d="M169 181v5h6v-5s1 0 0 0h-6M60 111h-3l-4 2c-1 4-2 15 2 17 8 4 12-18 8-20h-6M30 138c1 2-1 9-2 10"/>
    <path stroke-miterlimit="0" d="M30 143l2-3c5-5 4 7 3 7M36 141c7-7 6 2 6 6M51 139c-4-4-7 5-3 7 2 1 7-7 1-7M54 139c2 1 1 6 1 8"/>
    <path stroke-miterlimit="0" d="M55 141c2 0 7-6 8-3 1 2-2 5-2 7 0 0 1 3 1 1M67 141c9 0 8-6 3-5-1 1-4 10 5 10M79 139c2 1 1 7 4 7M85 138c0 6 0 10-5 12M31 181l60-1M68 171l26 9-21 11M283 195l51 1M314 187l21 10c-1 2-13 1-19 7M304 110c-1-1 3-6 4-8v-2 3l-1 19M285 143c3 3 4 10 7 4 2-3 2-2 4 1 2 5 2-6 4-8M305 135l2 14M306 143c7-7 8 5 7 5 0 0 0 0 0 0M317 145c10 0 3-8-1-4s6 10 6 7M327 139v10M327 142c3-3 6-3 7 0M337 145c14 1 2-8 0-2-2 3 2 9 5 6M284 157c2 2 0 9-2 10M285 162l2-3c5-6 4 7 3 8M291 160c8-8 7 2 7 7M307 158c-4-4-7 5-3 7 3 2 7-7 1-7M311 157c2 2 1 7 1 9"/>
    <path stroke-miterlimit="0" d="M312 159c2 0 7-5 9-2 1 2-2 5-2 7l1 2M325 160c10 0 8-7 4-5-2 0-5 10 4 10M338 157c2 2 1 8 5 8M345 157c0 6 0 10-6 13M305 122h5M157 337c0 5-4 16-2 21 6 11 7 25 7 38"/>
    <path stroke-miterlimit="0" d="M157 339c-14-14-13 25-13 30 0 7 4 60 6 61 3 2 13-3 17-3M153 327c1 2 5-8 1-12-1-1-7-3-8-2s2 2 3 3c5 5 12-8 4-11-7-4-27-2-17 8l3 1c14-5-20-10-27-7-10 5 17 7 0-1-5-3-13-1-19-1M170 387s2 7 1 9M176 395v-6c0-1 0-3-1-2 4 0 5 13 5 5l2-6M184 387l1 5c0 8 2-5 4-6M191 386c2 2-5 8 0 8h3M191 389h3M191 386h4M199 385c-3 0-1 8-1 9M199 385c2-2 5 3 4 5h-2c2 0 3 3 4 4M210 385c0 2-2 8 0 10M207 386l6-1M226 394l-1-9c4 0 6 4 1 4h-1a17997 17997 0 005 5M169 386h3M169 396l3-1"/>
    <path stroke-miterlimit="0" d="M163 382c0 4-2 14 1 17 2 1 14-1 17-1 5 0 19 1 23-1 5-3 23 2 30 0v-2l-2-14v-2l-18 2-20 1h-31"/>
    <path stroke-miterlimit="0" d="M161 399c5 5 6 26 6 33 15-4 66 5 77 0v-3c0-8-8-19-3-28 4-5-6-5-9-5"/>
    <path stroke-miterlimit="0" d="M171 406l1 5s0 0 0 0h6v-6s0 0 0 0h-7M316 322h-2c-1 1-4 1-4 3-1 3-2 14 2 16 7 4 11-18 8-19h-6M25 358c2 2 0 9-2 11M26 363l2-3c5-6 4 7 3 8M32 362c8-8 7 1 7 6M47 359c-4-4-6 5-2 8 2 1 7-8 1-8M52 359v8M53 361c1 0 6-6 8-3 1 2-2 5-2 8 0 0 1 3 1 1M65 362c10 0 8-7 4-6-2 1-5 10 4 10M78 359c2 1 1 7 5 7M84 358c0 7 0 10-5 13M26 404l65-2M66 393l28 10-23 12M287 403l44 1M313 396l18 8c-1 2-11 1-16 7M50 328c-1-1 3-5 4-8v-1 21M288 358c3 3 4 9 6 3 2-3 2-2 4 1 2 4 2-5 4-7M305 350l2 12M307 358c5-6 6 4 5 4 0 0 0 0 0 0M316 359c9 0 3-7-1-4-4 4 6 9 6 7M325 354c-2 1 0 7 0 9M325 357c3-3 5-3 6-1M333 359c12 1 2-6 0-2-2 3 2 8 4 6M288 369c1 2-1 9-2 10"/>
    <path stroke-miterlimit="0" d="M288 374l2-3c5-5 4 6 3 7M293 373c7-8 6 1 6 5M307 370c-3-3-6 5-2 7 2 1 6-7 1-7M311 370c2 1 1 5 1 7"/>
    <path stroke-miterlimit="0" d="M312 372c1 0 6-5 7-3s-1 5-1 7v1M323 372c9 0 7-6 3-4-1 0-4 8 4 8M334 370c2 1 1 7 5 7M340 369c0 6 0 9-5 12M52 340h4M183 406v5s0 0 0 0h6v-5-1l-6 1M193 405v5h7v-5-1l-7 1M205 405v5s0 0 0 0h6v-5-1l-6 1M216 404l1 6s0 0 0 0h6v-6s0 0 0 0h-7M172 416v5h7v-5-1l-7 1M183 416v5h7v-6s0 0 0 0l-7 1M193 416l1 5s0 0 0 0h6v-5-1l-7 1M205 416v5h7v-6s0 0 0 0l-7 1M216 415v5h7v-5-1l-7 1M60 29c-1 2 4 17 1 22M72 48V34c0-1 0-5-1-4 8 0 10 29 10 12 0-5 5-8 5-14M92 29l2 13c0 18 4-11 7-14M106 28c4 4-10 19 1 19h6M105 36h8M106 29l9-1M125 26c-6 0-3 19-3 22"/>
    <path stroke-miterlimit="0" d="M125 25c5-4 11 8 9 12-1 2-10 1-12 1h7c6 0 7 5 10 8M148 26c0 5-3 19 2 22M142 27l15-1M184 46l-1-20c9 0 13 10 2 10h-3l2 1c4 1 9 5 10 9M57 29h6M58 50c1-2 5-1 7-1M222 27c4 5-3 19-1 22M222 28h8M222 38h6M235 47c2-3 4-16 4-20 0 5 6 13 6 18M237 39h7M258 30c-15-15-6 31 1 12M263 26c2-2 9 0 11 0M268 26c-2 3-3 16 0 18M287 25c-11 0-13 17-9 20 13 6 9-15 9-21M293 43c-1 1-1 0-1-1 0-4-2-14 1-18h3c1 1 2 1 2 3 6 9-15-1 3 17M304 23c0 1 3 13 6 12 3-2 2-9 4-11M310 35c2 0 2 8 2 9M350 157c2-6 9-1 4 3-4 3-3 3-4 6M349 168c4 0 0 0 1 1M344 369c1-5 8 0 3 3-3 2-2 3-3 5M343 379c4 0 0 0 1 1"/>
    <path stroke-miterlimit="2" d="M165 27c3 4-10 19 1 19h6M164 35h8M166 28h8M212 162c1 2-4 8 0 8h3M212 166h3M212 163h3M217 385c1 2-5 9 0 9h3M217 389h3M217 386h4"/>
  </g>
</svg>
