<svg xmlns="http://www.w3.org/2000/svg" width="559.4" height="396.9">
  <defs/>
  <g fill="none" stroke="#008408" stroke-width="1.4">
    <path d="M51 42c0 40 19 87 26 127 10 57-8 113-8 169"/>
    <path d="M70 342c2-3 98 0 109 0 97 0 195-9 293-9 8-9 2-51 2-62 0-35-3-81-10-115-5-19 5-106 5-136L353 30c-77 12-160 4-237 4-24 0-45 6-68 6M73 50c-4 5-1 29 3 33"/>
    <path d="M100 69c-3-3-5-5-8-5-22 0 5 29 5 15l-2-14M105 66c7 0 7 22 12 17 2-2 4-18 4-22M127 74c3-3 6-2 10-2 11 0 10-9-1-9-5 0-13 7-6 11 5 3 8 6 13 6M155 80l1 2M169 61c0 11-3 17-3 27M167 69c8-9 15-8 15 4M192 63c0 58 24 8 15-2M140 136v7c0 46-7 100 7 144 0 3 50 2 61-1 35-8 154-6 195-6 6-21-6-134-6-164-1-2-2-2-4-2-21 0-43 1-62 8-13 5-163 5-190 5-3 2-4 10-1 13M140 150l261-1"/>
    <path d="M155 141c4-4-2-6-4-6-3 0 5 15 5 3 0-3 4 18-5 14-3-1 8-7 8-7M160 141h2l3-2c6-4-10-7-2 3l6 1M172 133v10M172 138c5-6 7-3 7 4l-1 3M183 141c11 0-1-13-1-5 0 4-2 9 4 9 1 0 3 1 3-1M192 134c2 2 1 9 1 12"/>
    <path d="M193 138c1-1 8-9 8-5 0 2 1 7-1 5M208 135c-7-8 0 16 0 6s3-5 3 3M215 125c2-1 1 3 1 4 0 3 1 14 3 15s4 0 3-1M214 134h5M228 136c-5-6 2 18 2 3 0-3-2-5-4-5M233 136s1-2 3-2h2c0 8 4 12 4 6M187 176v30M215 180c3 4 1 21 1 27M235 190h-4c-2 0-3-1-5 1-17 19 30 6 7-2h-1l-2-1M244 188c0 6 8 10 8 15 0 0 0-9 5-14M266 196c28 0-14-17 3 1 3 4 5 4 9 4M299 189c0 12 9 22 13 5 0 0 1-11 3-6 8 18-16 51-16 28M331 185c-1-2-10 19 4 19 5 0-3-17-5-20M341 184c-4 4 8 25 8 10 0-20 6-3 6 9M192 231c-4 8 5 22 1 26"/>
    <path d="M192 230c-6 0-14-2-18 2-3 3-1 8 0 11 2 3 7 2 10 2 12 0-2 2-9 9M213 252c3-5 8-8 12-12 0 3 3 9 3 14M235 240c-2 2-2 10-2 13M234 250c1-2 4-1 6-1"/>
    <path d="M246 240c-11 0-4 20 2 16 6-3 4-16-3-16M256 249c13-14 12 18 0 5"/>
    <path d="M257 254c-2-2-1-11-1-15h9M273 253c-2 1-2 5-2 5s1-14 5-19c0-5 4 11 4 16M284 238l2 17M285 247h6M300 242c0-6-7-2-7 5 0 13 14 1 7-7M320 238c3 3 0 10 3 13M318 241c2-3 6 1 8-2M333 243h5M342 250c0 2-1 1-3 1-12 0-3-7-8-13 1-2 6-1 8-2M344 234c3 3 4 10 6 14M348 240c13-14 11 20-1 7M344 232l8-1M369 247v-15c0-4-6 1-7 3-1 1 11 15-2 15M221 307c5 10 3 30 12 20l7-11c0-17 5 15 12 15 2 0 0-4 0-5 0-5 6-17 9-19M276 303c0 8 5 16 5 25M265 302l23-2M298 299c4 9 1 18 1 27M299 303h10M299 316c3 0 19-2 16-4M329 305c-3-3 22-15 15 0-3 6-19 8-13 14M331 327h4"/>
  </g>
</svg>
