<svg xmlns="http://www.w3.org/2000/svg" width="559.4" height="396.9">
  <defs/>
  <g fill="none" stroke="#008408" stroke-width="1.4">
    <path d="M51 42c0 40 19 87 26 127 10 57-8 113-8 169"/>
    <path d="M70 342c2-3 98 0 109 0 97 0 195-9 293-9 8-9 2-51 2-62 0-35-3-81-10-115-5-19 5-106 5-136L353 30c-77 12-160 4-237 4-24 0-45 6-68 6"/>
    <path d="M136 119c2 1 0 4 0 7 0 46-6 100 7 144 1 2 51 1 62-1 35-8 153-6 195-6 6-21-6-135-6-165l-5-1c-20 0-43 1-61 8-13 5-163 5-191 5-3 1-3 10-1 12M136 133l261-2"/>
    <path d="M151 123c5-4-2-6-5-6s7 18 7 3c0-4 4 22-7 18-3-2 10-9 10-9M157 123h2l5-2c7-5-13-8-2 4l6 1M172 115v11M172 120c6-7 8-3 8 5l-1 3M185 123c14 0-1-15-1-5 0 5-2 11 5 11 2 0 4 1 3-1M197 116c2 2 0 11 0 14"/>
    <path d="M197 120c1-1 10-11 10-5 0 2 1 7-1 5M216 117c-9-10 0 20 0 6 0-12 4-5 4 4M225 105c1-2 1 3 1 4 0 4 0 18 4 19 2 0 4 0 3-2M224 116l6-1M240 118c-6-8 3 22 3 3 0-3-3-5-5-5M246 118c1 0 1-3 4-3h2c0 10 5 15 5 7M189 150l-1 22M209 153c3 2 1 16 1 20M225 160h-4l-3 1c-13 14 22 4 5-2 0 0 0 0 0 0l-2-1M232 158c0 5 6 9 6 12 0 0 0-7 4-11M248 165c21 0-11-13 2 1 2 2 4 3 7 3M273 159c0 9 7 17 10 4 0 0 1-8 2-5 7 14-12 39-12 22M298 156c-1-1-8 15 2 15 4 0-2-13-3-15M305 156c-3 3 6 19 6 7 0-15 5-2 5 7M191 196c-3 6 4 16 1 20"/>
    <path d="M191 194c-5 0-11-1-14 3-2 2-1 6 0 8 2 2 5 1 8 1 9 0-2 2-7 8M208 212c2-4 6-6 9-9l2 11M225 203c-2 1-1 7-1 10M224 210l5-1M234 203c-9 0-4 15 1 12 5-2 4-12-2-12M242 209c10-10 9 15-1 5"/>
    <path d="M243 214c-2-2-1-9-1-12h7M255 213l-2 4s1-11 4-15c0-5 3 8 3 13M264 201l1 14M264 208h5M276 204c0-5-6-1-6 4 0 10 12 1 6-5M292 201c2 2 0 8 2 11M290 203c2-2 5 1 7-1M302 205h4M309 210c0 2-1 2-2 2-9 0-2-6-7-11l7-1M311 198c2 2 3 8 4 11M314 203c10-11 8 15-1 5M311 197c1-2 4-1 6-1M330 208v-11c0-4-5 0-5 2-1 0 8 11-2 11M73 80c3-3 7-28 5-30 11 5 19 12-1 12M109 48c-47 0 17 20-4 0M119 39c0 5 1 15-2 19M123 46c2-2 9 6 9 8M136 46c0 11-6 13-13 20M151 48c-3-4-10-1-10 3 0 12 7 2 11-2v11c-4 15-18 3-4 3M161 40c3 2 0 17-1 16M175 50c-5-4-12-1-12 6 0 10 15 0 10-6M184 40c8 9-11 20 9 20M182 48h9M204 58v1M223 45c-15 0-10 20-2 13M240 50c-29 0 14 18-3 0M247 47c0 3 2 11 0 13M247 50c10-10 9 11 6 8M255 51c8-9 12 5 8 9M303 240c1-1-21 10-3 10 6 0 8-10 0-10M305 243c2 0 3 0 1 2M295 245c-3 0-4 1-2 3M297 245l1 1M302 244v1M298 247h4"/>
    <path d="M289 236c0 24 21 26 21 3 0-1 1-6-1-7-5-1-14 4-20 4M335 240c-1-1-7-3-8-1-6 18 10 5 5 0M327 242h1M330 242c1 0 2 0 1-1M327 245h4"/>
    <path d="M322 234c0 5-3 15-1 20 1 1 6-1 7-1 15 0 10-7 10-19l-1-2c-3-1-10 2-14 2M363 244s0 0 0 0M358 245c-2 1 5 0 0 0M359 247c2 4 5 1 5 1M364 242l1-3M360 240l1-1M357 242l-2-2M356 245h-2M367 244c2-2 3 1 1 3"/>
    <path d="M355 247c-5 0 2 2 2 2 2 2 6 3 9 1 8-4-9-15-9-6 0 1-3 5 0 5"/>
    <path d="M351 236l-1 18 8 1c14 0 14 0 14-13l1-7c-4-2-18 1-23 1M152 247c-1 0 0 0 0 0 2 3 2 8 5 1v-1c3 11-1-2 4-2M164 247c-3 0-3 6 1-2v6M167 245c3-2 0 7 0 6M169 247c3-4 2 3 1 4M176 241c0 3-3 10 0 10 1 0 2 0 1-1M174 245h2M186 242v1c0 3-2 7 2 7v-1M185 245h2M194 245c-11 0 6 7 0 1M202 241l1 8h2M202 244h2M210 245c-2-2-3 3-1 3 3 0 0-4 2-4 0 0-1 6 1 5M214 242v7M217 245v4M220 246c-2-2-2 1 0 3M227 243c2 1-1 8 1 8M227 246h2M233 247c-10 0 6 7-1 0M239 246c1 0 1 4 3 4M243 247l-3 6M248 247c-5 0-1 6 1 3 0-2 1-3-1-3M252 246l-1 3c1 1 2 3 4 2v-6l2 5M268 246c6 0 17-2 7-2M279 245c1 1-3 3-4 4M263 306c-10 0-24 3-20 17 3 8 50 15 19-16M281 304v21M292 306c0 17-19-1-5 14 1 1 6 5 7 4M308 286c-5 5-2 23-2 30M310 325c-2 2 0 1 1 1"/>
  </g>
</svg>
