<svg xmlns="http://www.w3.org/2000/svg" width="396.9" height="559.4">
  <defs/>
  <g fill="none" stroke="#0a9a00" stroke-miterlimit="0" stroke-width="1.4">
    <path d="M61 51c11 11 9 26 15 38v5c9 0 15-23 15-30 0-2-2-6 0-6 8 0 11 27 16 31 1 1 2 4 3 3 19-12 9-38 22-51m10 30c4 2 31 4 33 1 6-6-9-20-13-22-6-3-55 40 19 40m16-41c2-2 2 29 5 35m-7-56v1m22 16c17 17 4 29 4 49m7-35c2-2 0-6 2-9 4-6 24-4 24 5m34-25c6 6 6 57 1 62"/>
    <path d="M289 62c-4-4-15-1-19 1-22 15 21 30 21 18M62 122c0 12 0 27-5 37m6-24c-1-1 17-16 21-13 7 7-3 28-3 36m17-35c0 9-1 43 17 34 13-7 11-18 11-31v-6 6c0 8-3 21 3 27m10-32c13 0 1 28 1 31m4-24c0-24 28 6 16 18m2-19c0-16 21-23 21 18 0 2 0 5-2 2m26-43c0 15-5 29-5 48"/>
    <path d="M205 127c3-4 17-4 17 2l2 9c14 21-23 14-23 4m45-8c30 0 19-25-3-18-6 2 6 38 24 29m13-30c0 9-2 24 2 32"/>
    <path d="M279 126c7 0 14-13 24-8 4 2 2 12-3 12M151 287l2 3c10 40-3 90-7 131-2 23 4 46 4 68m4-198c48 0 90-10 135-26 30-10 52-17 54-15 4 5-1 44-2 50-3 24 11 158 3 166m-192 24c11 0 191-26 195-31M61 342c0-15-13 23-4 14 3-3 3-11 3-15m11-2c-11-11 2 34 2 12 0-6 0-9-4-13m13-1c-3-3-5 22 3 18 3-1-2-19-4-19m-24 10c-1 1 0 1 1 2m11-5l2 3m-19 31c8-8 16-11 26-6l2 1"/>
    <path d="M88 324c-10 0-23-5-34-2-31 7-21 43-14 63 1 5 9 4 12 6 21 14 73-33 37-69m44-95c0 12-2 22 8 22m-13-9l9-2m4-1c6 0 11 12 12 12 3 0 3-13 4-12 13 17 5 2 14-9m10 1c0 3-2 1-3 2-4 2-4 5-4 10 0 12 14-11 6-11m9-11v3m13-3c-9 0 13 34-9 21m38-27c-8 0-13 16-3 16m11-11c-3-4-9 8-6 10 6 3 9-8 7-11m5 0c2 1 2 9 2 11m0-8c5-6 7-7 7 3m0-7c3 0 9 11 6 9m4-12c5 6 0 17 5 23m-3-22c4-5 8 9-2 9m10-35c0 11-1 25 5 32m10-21c2 4 0 11 2 14m-1-10c6 0 7-5 7 7m0-6c0-17 4-6 9 0m4-6c13 0 1-21 1-1 0 4 6 5 8 2m2-11c3 3 0 7 2 10 0 0 0 0 0 0m0-7c0-3 4-8 6-3 1 1-1 13 2 10m10-36l-2 24 3 8m-6-18c3 0 9-2 11-4m-166 90l1 11m-1-7c6 0 14-16 14 3m0-4c5-7 12-9 12 2m8-11c2 3 3 8 3 12m-5-20h3m9 2c2 4 1 11 1 16m2-10c1-2 10-5 8-3m5-2c2-3 2 19 6 14m-3-10c2 0 9-9 9-4m10-2c-5-7 3 29 3 2 0-7-2-8-5-1m11-7c-3 2 1 14 4 14m-4-8c3-5 5-9 9-3"/>
    <path d="M45 353c-1-1 4-14 0-14 0 4-1 5-3 7m-18 83c7 7 6 21 13 11 3-5 2-14 5-3 8 22 8-9 16-17m3-7l2 25m1-10c6-6 10-5 10 4v7m5-15c-2 1 0 1 0 2 6 12 4 9 10-2 0-1 0-5 1-4 5 6-8 31-19 31m28-45c14-14 5 21 1 25m-2 7h2m187-9c-7 7-6 21-13 11-3-5-2-14-5-4-8 23-8-8-16-16m-3-7l-2 26m-1-11c-7-6-10-5-10 4l-1 7"/>
    <path d="M232 424v2c-6 12-4 9-10-2-1-1 0-5-1-4-6 6 8 31 19 31m-28-45c-13-14-4 21-1 25m2 7h-2M61 356h2m2-1h3m174-13c0-15-13 23-3 14 3-3 3-11 3-15m10-2c-11-11 3 34 3 12 0-6 0-9-4-13m13-1c-4-3-6 22 2 18 3-2-2-19-3-19m-24 10c-1 1 0 1 1 2m11-5l2 3m-20 31c8-8 16-11 26-6h3"/>
    <path d="M269 324c-10 0-23-5-34-2-30 7-21 43-14 63 2 5 10 4 13 6 20 14 72-33 36-69"/>
    <path d="M226 353c-1-1 4-14 1-14 0 4-2 5-4 7m19 10h2m3-1h3m30-145c9-11-1-6-1-5 0 5 7 13 7 8"/>
  </g>
</svg>
