<svg xmlns="http://www.w3.org/2000/svg" width="396.9" height="559.4">
  <defs/>
  <g fill="none" stroke="#277d14" stroke-miterlimit="0" stroke-width="1.4">
    <path d="M314 200h-4c-5 2 0 10 4 7 2-1 4-7 0-7"/>
    <path d="M301 181l-3-1c-7-3-9 18-4 22l1 3v4c-2 4-6 4-8 8 0 2-2 5 0 7h1l13-3c6 2 8 8 14 8 0 0 0 0 0 0 4-2 1-10 8-11 5-1 8 6 12 3 14-7-3-11-3-14 0-2 18-16 5-16-15 0-4-10-14-14-3-1-11 16-23 4M63 68c6-6 3-2 3 6M76 66c-7 0-7 7 0 7 4 0 4-9 0-9M88 64c-5 0-10 5-4 8 8 4 7-8 4-8M93 66c2 2 4-7 4 2l1 5M102 72h1M107 72v1M111 72l1 1M269 70h-4c-4 0-5 7-2 9 6 4 10-4 6-9M265 60l-2-1c-1 0-2 3-1 4 3 2 5-1 3-3"/>
    <path d="M260 62c-6 1-9 9-9 14s5 13 13 13c7 0 17-7 17-13 0-7-5-16-13-15M259 51c-3-2-5 6 1 5h1M261 47l2 8 2 1M262 51l2-1M266 50c1 1 4 4 2 5"/>
    <path d="M268 52l1-2c1-1 4 1 1 1M275 49c-2-2-3 6 1 4 1-1 1-4-1-4M278 48c2 2 1 3 1 6"/>
    <path d="M279 50l3-2c1-1 0 5 1 6M242 57l3-2c0-1-2-2-3-1v4h3M251 55l3-1c1-2-2-2-3-2v4h4M247 48l1 10M298 170h-4c-1 1-3 3-1 3l6 1M302 172c1 0 5-1 5-3h-5l-1 5 5 1M311 162l-2 8 1 3M313 162v11M179 350c-1 2-16 0-21 4-5 3-5 9-7 14-6 27 54 10 26-18M154 351c-2-1-7-13-9-15M165 347c2-2-1-15-1-18M180 345c3 0 8-14 9-17M189 357c5-5 14-4 18-8M186 375c7 0 5 16 12 16M171 383c3 3 2 12 2 16M154 388c0 4-8 13-11 16M147 375l-24 1M147 362c-7 0-16-9-22-12M327 353c-28 0-13 24-2 19 8-4 11-17 2-19M259 383c-16 5 3 19 5 7 0-3-2-5-4-7"/>
    <path d="M311 362c-3 3-11 10-7 13 15 10 61-42 23-23"/>
    <path d="M324 377c-6 18-21 39-36 49-14 11-123 42-155 42-28 0-66 2-90-16-24-16-20-63-6-82 21-27 144-57 184-60 23 0 104 5 104 33"/>
    <path d="M166 363l1 6c2 1 3-5 2-6M171 363c2 1 2 5 0 6M172 364c3-2 4 3 3 5M163 364c1-2-5-1-1 2s-3 4-2 1M125 179c-7 0-8 8 2 8 4 0 5-8-1-8M108 181c-5-5-14 6-6 6 7 0 7-5 7-5M108 201c-12 12 19 18 11 2M109 223c4-3 14 3 20-3M97 245l2 1c2 4 1 18 10 7 2-3 4-12 4-9 0 5 6 9 6 6v-4c2 9 2 10 4 3 1-2 2-7 4-6 5 3 6 11 8 15 2 3 2-3 4-5 3-3 6-5 6-8M120 153c-7 1-37 0-34 9 1 3 20 5 32 5 11 0 27-3 29-7 5-10-22-7-27-7M94 123s0 0 0 0M125 180v2M104 181l-1 2M107 126c-3-1-11-9-13-10-14-11 59-17 41-54-10-19-85-16-97 4-16 26 49 60 68 60"/>
    <path d="M67 87c10 0 0 5 0 4v-8M74 85l-1 6M78 85c-2 0-1 4-1 6M77 87c3-4 5 1 5 4M87 85c-5 0-2 8 0 5 5-4-4-7 3 0M93 84l-1 6M92 86c-1-2 8-2 5 1M102 84c0 6 6 1 5 0 0 4-3 5-5 6M75 82v1M166 203c0-5-5-3-6-2-4 5 0 15 6 9 1-1-3-4 1-2v2M176 207c-11 0-2 10 0 4v-4h-1M184 200l-1 13M183 207c-7 0-3 8 0 5M301 98c17 8 16 28 9 41 1-6 3-7 1-13M311 139c2-5 2-8 7-10M328 298c2-3 2-7 2-11"/>
    <path d="M331 262c2-2 3 3 4 4 12 12 0 26-8 34 5-3 6-4 12-4M139 30c19-23 78-21 94 6-3-3-2-10-2-14M232 35c-3 0-8-5-13-5M82 502c4-3-7-12-12 5-8 20 16 7 9 7-5 0 5 5 5 3M98 507c0-3-13 1-9 9s14-1 11-7l-3-3M120 495c0 8-3 33-3 24M120 509c-26 0-12 17-3 8M127 505c0 1 0 5-2 5M145 509c-3-2-4-3-7-3-12 0 17 15 1 15-2 0-8-2-5-5M181 498c2 0-1 20-1 22M181 508c14-13 14 22 0 8M199 505v15M198 497h1M211 503c-3 3-3 12-3 17"/>
    <path d="M208 507c6 0 12-8 12 4l-1 6M237 507c-9-13-14 11-9 11 8 0 15-20 9-9-2 4 3 11 3 9M247 504c3-3 3 10 0 14"/>
    <path d="M248 507c2-3 9-5 11-3 2 1-1 5-1 3M265 505c0 10 12 5 12-1 0 7-13 25-13 14"/>
  </g>
</svg>
